{"header":{"timeSignature":[4,4],"PPQ":48,"tempo":50},"notes":[{"time":"0i","midiNote":37,"note":"C#2","velocity":1,"duration":"192i"},{"time":"0i","midiNote":49,"note":"C#3","velocity":1,"duration":"192i"},{"time":"0i","midiNote":56,"note":"G#3","velocity":1,"duration":"16i"},{"time":"16i","midiNote":61,"note":"C#4","velocity":1,"duration":"16i"},{"time":"32i","midiNote":64,"note":"E4","velocity":1,"duration":"16i"},{"time":"48i","midiNote":56,"note":"G#3","velocity":1,"duration":"16i"},{"time":"64i","midiNote":61,"note":"C#4","velocity":1,"duration":"16i"},{"time":"80i","midiNote":64,"note":"E4","velocity":1,"duration":"16i"},{"time":"96i","midiNote":56,"note":"G#3","velocity":1,"duration":"16i"},{"time":"112i","midiNote":61,"note":"C#4","velocity":1,"duration":"16i"},{"time":"128i","midiNote":64,"note":"E4","velocity":1,"duration":"16i"},{"time":"144i","midiNote":56,"note":"G#3","velocity":1,"duration":"16i"},{"time":"160i","midiNote":61,"note":"C#4","velocity":1,"duration":"16i"},{"time":"176i","midiNote":64,"note":"E4","velocity":1,"duration":"16i"},{"time":"192i","midiNote":35,"note":"B1","velocity":1,"duration":"192i"},{"time":"192i","midiNote":47,"note":"B2","velocity":1,"duration":"192i"},{"time":"192i","midiNote":56,"note":"G#3","velocity":1,"duration":"16i"},{"time":"208i","midiNote":61,"note":"C#4","velocity":1,"duration":"16i"},{"time":"224i","midiNote":64,"note":"E4","velocity":1,"duration":"16i"},{"time":"240i","midiNote":56,"note":"G#3","velocity":1,"duration":"16i"},{"time":"256i","midiNote":61,"note":"C#4","velocity":1,"duration":"16i"},{"time":"272i","midiNote":64,"note":"E4","velocity":1,"duration":"16i"},{"time":"288i","midiNote":56,"note":"G#3","velocity":1,"duration":"16i"},{"time":"304i","midiNote":61,"note":"C#4","velocity":1,"duration":"16i"},{"time":"320i","midiNote":64,"note":"E4","velocity":1,"duration":"16i"},{"time":"336i","midiNote":56,"note":"G#3","velocity":1,"duration":"16i"},{"time":"352i","midiNote":61,"note":"C#4","velocity":1,"duration":"16i"},{"time":"368i","midiNote":64,"note":"E4","velocity":1,"duration":"16i"},{"time":"384i","midiNote":33,"note":"A1","velocity":1,"duration":"96i"},{"time":"384i","midiNote":45,"note":"A2","velocity":1,"duration":"96i"},{"time":"384i","midiNote":57,"note":"A3","velocity":1,"duration":"16i"},{"time":"400i","midiNote":61,"note":"C#4","velocity":1,"duration":"16i"},{"time":"416i","midiNote":64,"note":"E4","velocity":1,"duration":"16i"},{"time":"432i","midiNote":57,"note":"A3","velocity":1,"duration":"16i"},{"time":"448i","midiNote":61,"note":"C#4","velocity":1,"duration":"16i"},{"time":"464i","midiNote":64,"note":"E4","velocity":1,"duration":"16i"},{"time":"480i","midiNote":30,"note":"F#1","velocity":1,"duration":"96i"},{"time":"480i","midiNote":42,"note":"F#2","velocity":1,"duration":"96i"},{"time":"480i","midiNote":57,"note":"A3","velocity":1,"duration":"16i"},{"time":"496i","midiNote":62,"note":"D4","velocity":1,"duration":"16i"},{"time":"512i","midiNote":66,"note":"F#4","velocity":1,"duration":"16i"},{"time":"528i","midiNote":57,"note":"A3","velocity":1,"duration":"16i"},{"time":"544i","midiNote":62,"note":"D4","velocity":1,"duration":"16i"},{"time":"560i","midiNote":66,"note":"F#4","velocity":1,"duration":"16i"},{"time":"576i","midiNote":32,"note":"G#1","velocity":1,"duration":"96i"},{"time":"576i","midiNote":44,"note":"G#2","velocity":1,"duration":"96i"},{"time":"576i","midiNote":56,"note":"G#3","velocity":1,"duration":"16i"},{"time":"592i","midiNote":60,"note":"C4","velocity":1,"duration":"16i"},{"time":"608i","midiNote":66,"note":"F#4","velocity":1,"duration":"16i"},{"time":"624i","midiNote":56,"note":"G#3","velocity":1,"duration":"16i"},{"time":"640i","midiNote":61,"note":"C#4","velocity":1,"duration":"16i"},{"time":"656i","midiNote":64,"note":"E4","velocity":1,"duration":"16i"},{"time":"672i","midiNote":32,"note":"G#1","velocity":1,"duration":"96i"},{"time":"672i","midiNote":44,"note":"G#2","velocity":1,"duration":"96i"},{"time":"672i","midiNote":56,"note":"G#3","velocity":1,"duration":"16i"},{"time":"688i","midiNote":61,"note":"C#4","velocity":1,"duration":"16i"},{"time":"704i","midiNote":63,"note":"D#4","velocity":1,"duration":"16i"},{"time":"720i","midiNote":54,"note":"F#3","velocity":1,"duration":"16i"},{"time":"736i","midiNote":60,"note":"C4","velocity":1,"duration":"16i"},{"time":"752i","midiNote":63,"note":"D#4","velocity":1,"duration":"16i"},{"time":"768i","midiNote":37,"note":"C#2","velocity":1,"duration":"192i"},{"time":"768i","midiNote":44,"note":"G#2","velocity":1,"duration":"192i"},{"time":"768i","midiNote":49,"note":"C#3","velocity":1,"duration":"192i"},{"time":"768i","midiNote":52,"note":"E3","velocity":1,"duration":"16i"},{"time":"784i","midiNote":56,"note":"G#3","velocity":1,"duration":"16i"},{"time":"800i","midiNote":61,"note":"C#4","velocity":1,"duration":"16i"},{"time":"816i","midiNote":56,"note":"G#3","velocity":1,"duration":"16i"},{"time":"832i","midiNote":61,"note":"C#4","velocity":1,"duration":"16i"},{"time":"848i","midiNote":64,"note":"E4","velocity":1,"duration":"16i"},{"time":"864i","midiNote":56,"note":"G#3","velocity":1,"duration":"16i"},{"time":"880i","midiNote":61,"note":"C#4","velocity":1,"duration":"16i"},{"time":"896i","midiNote":64,"note":"E4","velocity":1,"duration":"16i"},{"time":"912i","midiNote":56,"note":"G#3","velocity":1,"duration":"16i"},{"time":"912i","midiNote":68,"note":"G#4","velocity":1,"duration":"36i"},{"time":"928i","midiNote":61,"note":"C#4","velocity":1,"duration":"16i"},{"time":"944i","midiNote":64,"note":"E4","velocity":1,"duration":"16i"},{"time":"948i","midiNote":68,"note":"G#4","velocity":1,"duration":"12i"},{"time":"960i","midiNote":36,"note":"C2","velocity":1,"duration":"192i"},{"time":"960i","midiNote":44,"note":"G#2","velocity":1,"duration":"192i"},{"time":"960i","midiNote":48,"note":"C3","velocity":1,"duration":"192i"},{"time":"960i","midiNote":56,"note":"G#3","velocity":1,"duration":"16i"},{"time":"960i","midiNote":68,"note":"G#4","velocity":1,"duration":"144i"},{"time":"976i","midiNote":63,"note":"D#4","velocity":1,"duration":"16i"},{"time":"992i","midiNote":66,"note":"F#4","velocity":1,"duration":"16i"},{"time":"1008i","midiNote":56,"note":"G#3","velocity":1,"duration":"16i"},{"time":"1024i","midiNote":63,"note":"D#4","velocity":1,"duration":"16i"},{"time":"1040i","midiNote":66,"note":"F#4","velocity":1,"duration":"16i"},{"time":"1056i","midiNote":56,"note":"G#3","velocity":1,"duration":"16i"},{"time":"1072i","midiNote":63,"note":"D#4","velocity":1,"duration":"16i"},{"time":"1088i","midiNote":66,"note":"F#4","velocity":1,"duration":"16i"},{"time":"1104i","midiNote":56,"note":"G#3","velocity":1,"duration":"16i"},{"time":"1104i","midiNote":68,"note":"G#4","velocity":1,"duration":"36i"},{"time":"1120i","midiNote":63,"note":"D#4","velocity":1,"duration":"16i"},{"time":"1136i","midiNote":66,"note":"F#4","velocity":1,"duration":"16i"},{"time":"1140i","midiNote":68,"note":"G#4","velocity":1,"duration":"12i"},{"time":"1152i","midiNote":37,"note":"C#2","velocity":1,"duration":"96i"},{"time":"1152i","midiNote":49,"note":"C#3","velocity":1,"duration":"96i"},{"time":"1152i","midiNote":56,"note":"G#3","velocity":1,"duration":"16i"},{"time":"1152i","midiNote":68,"note":"G#4","velocity":1,"duration":"96i"},{"time":"1168i","midiNote":61,"note":"C#4","velocity":1,"duration":"16i"},{"time":"1184i","midiNote":64,"note":"E4","velocity":1,"duration":"16i"},{"time":"1200i","midiNote":56,"note":"G#3","velocity":1,"duration":"16i"},{"time":"1216i","midiNote":61,"note":"C#4","velocity":1,"duration":"16i"},{"time":"1232i","midiNote":64,"note":"E4","velocity":1,"duration":"16i"},{"time":"1248i","midiNote":30,"note":"F#1","velocity":1,"duration":"96i"},{"time":"1248i","midiNote":42,"note":"F#2","velocity":1,"duration":"96i"},{"time":"1248i","midiNote":57,"note":"A3","velocity":1,"duration":"16i"},{"time":"1248i","midiNote":69,"note":"A4","velocity":1,"duration":"96i"},{"time":"1264i","midiNote":61,"note":"C#4","velocity":1,"duration":"16i"},{"time":"1280i","midiNote":66,"note":"F#4","velocity":1,"duration":"16i"},{"time":"1296i","midiNote":57,"note":"A3","velocity":1,"duration":"16i"},{"time":"1312i","midiNote":61,"note":"C#4","velocity":1,"duration":"16i"},{"time":"1328i","midiNote":66,"note":"F#4","velocity":1,"duration":"16i"},{"time":"1344i","midiNote":35,"note":"B1","velocity":1,"duration":"96i"},{"time":"1344i","midiNote":47,"note":"B2","velocity":1,"duration":"96i"},{"time":"1344i","midiNote":56,"note":"G#3","velocity":1,"duration":"16i"},{"time":"1344i","midiNote":68,"note":"G#4","velocity":1,"duration":"96i"},{"time":"1360i","midiNote":59,"note":"B3","velocity":1,"duration":"16i"},{"time":"1376i","midiNote":64,"note":"E4","velocity":1,"duration":"16i"},{"time":"1392i","midiNote":56,"note":"G#3","velocity":1,"duration":"16i"},{"time":"1408i","midiNote":59,"note":"B3","velocity":1,"duration":"16i"},{"time":"1424i","midiNote":64,"note":"E4","velocity":1,"duration":"16i"},{"time":"1440i","midiNote":35,"note":"B1","velocity":1,"duration":"96i"},{"time":"1440i","midiNote":47,"note":"B2","velocity":1,"duration":"96i"},{"time":"1440i","midiNote":57,"note":"A3","velocity":1,"duration":"16i"},{"time":"1440i","midiNote":66,"note":"F#4","velocity":1,"duration":"48i"},{"time":"1456i","midiNote":59,"note":"B3","velocity":1,"duration":"16i"},{"time":"1472i","midiNote":63,"note":"D#4","velocity":1,"duration":"16i"},{"time":"1488i","midiNote":57,"note":"A3","velocity":1,"duration":"16i"},{"time":"1488i","midiNote":71,"note":"B4","velocity":1,"duration":"48i"},{"time":"1504i","midiNote":59,"note":"B3","velocity":1,"duration":"16i"},{"time":"1520i","midiNote":63,"note":"D#4","velocity":1,"duration":"16i"},{"time":"1536i","midiNote":40,"note":"E2","velocity":1,"duration":"192i"},{"time":"1536i","midiNote":52,"note":"E3","velocity":1,"duration":"192i"},{"time":"1536i","midiNote":56,"note":"G#3","velocity":1,"duration":"16i"},{"time":"1536i","midiNote":64,"note":"E4","velocity":1,"duration":"48i"},{"time":"1552i","midiNote":59,"note":"B3","velocity":1,"duration":"16i"},{"time":"1584i","midiNote":56,"note":"G#3","velocity":1,"duration":"16i"},{"time":"1600i","midiNote":59,"note":"B3","velocity":1,"duration":"16i"},{"time":"1616i","midiNote":64,"note":"E4","velocity":1,"duration":"16i"},{"time":"1632i","midiNote":56,"note":"G#3","velocity":1,"duration":"16i"},{"time":"1648i","midiNote":59,"note":"B3","velocity":1,"duration":"16i"},{"time":"1664i","midiNote":64,"note":"E4","velocity":1,"duration":"16i"},{"time":"1680i","midiNote":56,"note":"G#3","velocity":1,"duration":"16i"},{"time":"1696i","midiNote":59,"note":"B3","velocity":1,"duration":"16i"},{"time":"1712i","midiNote":64,"note":"E4","velocity":1,"duration":"16i"},{"time":"1728i","midiNote":40,"note":"E2","velocity":1,"duration":"192i"},{"time":"1728i","midiNote":52,"note":"E3","velocity":1,"duration":"192i"},{"time":"1728i","midiNote":55,"note":"G3","velocity":1,"duration":"16i"},{"time":"1744i","midiNote":59,"note":"B3","velocity":1,"duration":"16i"},{"time":"1760i","midiNote":64,"note":"E4","velocity":1,"duration":"16i"},{"time":"1776i","midiNote":55,"note":"G3","velocity":1,"duration":"16i"},{"time":"1792i","midiNote":59,"note":"B3","velocity":1,"duration":"16i"},{"time":"1808i","midiNote":64,"note":"E4","velocity":1,"duration":"16i"},{"time":"1824i","midiNote":55,"note":"G3","velocity":1,"duration":"16i"},{"time":"1840i","midiNote":59,"note":"B3","velocity":1,"duration":"16i"},{"time":"1856i","midiNote":64,"note":"E4","velocity":1,"duration":"16i"},{"time":"1872i","midiNote":55,"note":"G3","velocity":1,"duration":"16i"},{"time":"1872i","midiNote":67,"note":"G4","velocity":1,"duration":"36i"},{"time":"1888i","midiNote":59,"note":"B3","velocity":1,"duration":"16i"},{"time":"1904i","midiNote":64,"note":"E4","velocity":1,"duration":"16i"},{"time":"1908i","midiNote":67,"note":"G4","velocity":1,"duration":"12i"},{"time":"1920i","midiNote":38,"note":"D2","velocity":1,"duration":"192i"},{"time":"1920i","midiNote":50,"note":"D3","velocity":1,"duration":"192i"},{"time":"1920i","midiNote":55,"note":"G3","velocity":1,"duration":"16i"},{"time":"1920i","midiNote":67,"note":"G4","velocity":1,"duration":"144i"},{"time":"1936i","midiNote":59,"note":"B3","velocity":1,"duration":"16i"},{"time":"1952i","midiNote":65,"note":"F4","velocity":1,"duration":"16i"},{"time":"1968i","midiNote":55,"note":"G3","velocity":1,"duration":"16i"},{"time":"1984i","midiNote":59,"note":"B3","velocity":1,"duration":"16i"},{"time":"2000i","midiNote":65,"note":"F4","velocity":1,"duration":"16i"},{"time":"2016i","midiNote":55,"note":"G3","velocity":1,"duration":"16i"},{"time":"2032i","midiNote":59,"note":"B3","velocity":1,"duration":"16i"},{"time":"2048i","midiNote":65,"note":"F4","velocity":1,"duration":"16i"},{"time":"2064i","midiNote":55,"note":"G3","velocity":1,"duration":"16i"},{"time":"2064i","midiNote":67,"note":"G4","velocity":1,"duration":"36i"},{"time":"2080i","midiNote":59,"note":"B3","velocity":1,"duration":"16i"},{"time":"2096i","midiNote":65,"note":"F4","velocity":1,"duration":"16i"},{"time":"2100i","midiNote":67,"note":"G4","velocity":1,"duration":"12i"},{"time":"2112i","midiNote":36,"note":"C2","velocity":1,"duration":"48i"},{"time":"2112i","midiNote":48,"note":"C3","velocity":1,"duration":"48i"},{"time":"2112i","midiNote":55,"note":"G3","velocity":1,"duration":"16i"},{"time":"2112i","midiNote":67,"note":"G4","velocity":1,"duration":"144i"},{"time":"2128i","midiNote":60,"note":"C4","velocity":1,"duration":"16i"},{"time":"2144i","midiNote":64,"note":"E4","velocity":1,"duration":"16i"},{"time":"2160i","midiNote":35,"note":"B1","velocity":1,"duration":"48i"},{"time":"2160i","midiNote":47,"note":"B2","velocity":1,"duration":"48i"},{"time":"2160i","midiNote":55,"note":"G3","velocity":1,"duration":"16i"},{"time":"2176i","midiNote":59,"note":"B3","velocity":1,"duration":"16i"},{"time":"2192i","midiNote":64,"note":"E4","velocity":1,"duration":"16i"},{"time":"2208i","midiNote":34,"note":"A#1","velocity":1,"duration":"96i"},{"time":"2208i","midiNote":46,"note":"A#2","velocity":1,"duration":"96i"},{"time":"2208i","midiNote":55,"note":"G3","velocity":1,"duration":"16i"},{"time":"2224i","midiNote":61,"note":"C#4","velocity":1,"duration":"16i"},{"time":"2240i","midiNote":64,"note":"E4","velocity":1,"duration":"16i"},{"time":"2256i","midiNote":54,"note":"F#3","velocity":1,"duration":"16i"},{"time":"2256i","midiNote":66,"note":"F#4","velocity":1,"duration":"48i"},{"time":"2272i","midiNote":61,"note":"C#4","velocity":1,"duration":"16i"},{"time":"2288i","midiNote":64,"note":"E4","velocity":1,"duration":"16i"},{"time":"2304i","midiNote":35,"note":"B1","velocity":1,"duration":"96i"},{"time":"2304i","midiNote":47,"note":"B2","velocity":1,"duration":"96i"},{"time":"2304i","midiNote":54,"note":"F#3","velocity":1,"duration":"16i"},{"time":"2304i","midiNote":66,"note":"F#4","velocity":1,"duration":"96i"},{"time":"2320i","midiNote":59,"note":"B3","velocity":1,"duration":"16i"},{"time":"2336i","midiNote":62,"note":"D4","velocity":1,"duration":"16i"},{"time":"2352i","midiNote":54,"note":"F#3","velocity":1,"duration":"16i"},{"time":"2368i","midiNote":59,"note":"B3","velocity":1,"duration":"16i"},{"time":"2384i","midiNote":62,"note":"D4","velocity":1,"duration":"16i"},{"time":"2400i","midiNote":40,"note":"E2","velocity":1,"duration":"48i"},{"time":"2400i","midiNote":55,"note":"G3","velocity":1,"duration":"16i"},{"time":"2400i","midiNote":67,"note":"G4","velocity":1,"duration":"48i"},{"time":"2416i","midiNote":59,"note":"B3","velocity":1,"duration":"16i"},{"time":"2432i","midiNote":61,"note":"C#4","velocity":1,"duration":"16i"},{"time":"2448i","midiNote":43,"note":"G2","velocity":1,"duration":"48i"},{"time":"2448i","midiNote":52,"note":"E3","velocity":1,"duration":"16i"},{"time":"2448i","midiNote":64,"note":"E4","velocity":1,"duration":"48i"},{"time":"2464i","midiNote":59,"note":"B3","velocity":1,"duration":"16i"},{"time":"2480i","midiNote":61,"note":"C#4","velocity":1,"duration":"16i"},{"time":"2496i","midiNote":42,"note":"F#2","velocity":1,"duration":"96i"},{"time":"2496i","midiNote":54,"note":"F#3","velocity":1,"duration":"16i"},{"time":"2496i","midiNote":66,"note":"F#4","velocity":1,"duration":"96i"},{"time":"2512i","midiNote":59,"note":"B3","velocity":1,"duration":"16i"},{"time":"2528i","midiNote":62,"note":"D4","velocity":1,"duration":"16i"},{"time":"2544i","midiNote":54,"note":"F#3","velocity":1,"duration":"16i"},{"time":"2560i","midiNote":59,"note":"B3","velocity":1,"duration":"16i"},{"time":"2576i","midiNote":62,"note":"D4","velocity":1,"duration":"16i"},{"time":"2592i","midiNote":30,"note":"F#1","velocity":1,"duration":"96i"},{"time":"2592i","midiNote":42,"note":"F#2","velocity":1,"duration":"96i"},{"time":"2592i","midiNote":54,"note":"F#3","velocity":1,"duration":"16i"},{"time":"2592i","midiNote":66,"note":"F#4","velocity":1,"duration":"96i"},{"time":"2608i","midiNote":58,"note":"A#3","velocity":1,"duration":"16i"},{"time":"2624i","midiNote":61,"note":"C#4","velocity":1,"duration":"16i"},{"time":"2640i","midiNote":54,"note":"F#3","velocity":1,"duration":"16i"},{"time":"2656i","midiNote":58,"note":"A#3","velocity":1,"duration":"16i"},{"time":"2672i","midiNote":61,"note":"C#4","velocity":1,"duration":"16i"},{"time":"2688i","midiNote":35,"note":"B1","velocity":1,"duration":"240i"},{"time":"2688i","midiNote":47,"note":"B2","velocity":1,"duration":"240i"},{"time":"2688i","midiNote":59,"note":"B3","velocity":1,"duration":"48i"},{"time":"2704i","midiNote":62,"note":"D4","velocity":1,"duration":"16i"},{"time":"2720i","midiNote":66,"note":"F#4","velocity":1,"duration":"16i"},{"time":"2736i","midiNote":59,"note":"B3","velocity":1,"duration":"16i"},{"time":"2752i","midiNote":62,"note":"D4","velocity":1,"duration":"16i"},{"time":"2768i","midiNote":66,"note":"F#4","velocity":1,"duration":"16i"},{"time":"2784i","midiNote":59,"note":"B3","velocity":1,"duration":"16i"},{"time":"2800i","midiNote":63,"note":"D#4","velocity":1,"duration":"16i"},{"time":"2816i","midiNote":66,"note":"F#4","velocity":1,"duration":"16i"},{"time":"2832i","midiNote":59,"note":"B3","velocity":1,"duration":"16i"},{"time":"2832i","midiNote":71,"note":"B4","velocity":1,"duration":"48i"},{"time":"2848i","midiNote":63,"note":"D#4","velocity":1,"duration":"16i"},{"time":"2864i","midiNote":66,"note":"F#4","velocity":1,"duration":"16i"},{"time":"2880i","midiNote":59,"note":"B3","velocity":1,"duration":"16i"},{"time":"2880i","midiNote":72,"note":"C5","velocity":1,"duration":"144i"},{"time":"2896i","midiNote":64,"note":"E4","velocity":1,"duration":"16i"},{"time":"2912i","midiNote":67,"note":"G4","velocity":1,"duration":"16i"},{"time":"2928i","midiNote":40,"note":"E2","velocity":1,"duration":"48i"},{"time":"2928i","midiNote":52,"note":"E3","velocity":1,"duration":"48i"},{"time":"2928i","midiNote":59,"note":"B3","velocity":1,"duration":"16i"},{"time":"2944i","midiNote":64,"note":"E4","velocity":1,"duration":"16i"},{"time":"2960i","midiNote":67,"note":"G4","velocity":1,"duration":"16i"},{"time":"2976i","midiNote":43,"note":"G2","velocity":1,"duration":"48i"},{"time":"2976i","midiNote":55,"note":"G3","velocity":1,"duration":"48i"},{"time":"2976i","midiNote":59,"note":"B3","velocity":1,"duration":"16i"},{"time":"2992i","midiNote":64,"note":"E4","velocity":1,"duration":"16i"},{"time":"3008i","midiNote":67,"note":"G4","velocity":1,"duration":"16i"},{"time":"3024i","midiNote":40,"note":"E2","velocity":1,"duration":"48i"},{"time":"3024i","midiNote":52,"note":"E3","velocity":1,"duration":"48i"},{"time":"3024i","midiNote":59,"note":"B3","velocity":1,"duration":"16i"},{"time":"3024i","midiNote":70,"note":"A#4","velocity":1,"duration":"48i"},{"time":"3040i","midiNote":64,"note":"E4","velocity":1,"duration":"16i"},{"time":"3056i","midiNote":67,"note":"G4","velocity":1,"duration":"16i"},{"time":"3072i","midiNote":35,"note":"B1","velocity":1,"duration":"240i"},{"time":"3072i","midiNote":47,"note":"B2","velocity":1,"duration":"240i"},{"time":"3072i","midiNote":59,"note":"B3","velocity":1,"duration":"16i"},{"time":"3072i","midiNote":71,"note":"B4","velocity":1,"duration":"144i"},{"time":"3088i","midiNote":63,"note":"D#4","velocity":1,"duration":"16i"},{"time":"3104i","midiNote":66,"note":"F#4","velocity":1,"duration":"16i"},{"time":"3120i","midiNote":59,"note":"B3","velocity":1,"duration":"16i"},{"time":"3136i","midiNote":63,"note":"D#4","velocity":1,"duration":"16i"},{"time":"3152i","midiNote":66,"note":"F#4","velocity":1,"duration":"16i"},{"time":"3168i","midiNote":59,"note":"B3","velocity":1,"duration":"16i"},{"time":"3184i","midiNote":63,"note":"D#4","velocity":1,"duration":"16i"},{"time":"3200i","midiNote":66,"note":"F#4","velocity":1,"duration":"16i"},{"time":"3216i","midiNote":59,"note":"B3","velocity":1,"duration":"16i"},{"time":"3216i","midiNote":71,"note":"B4","velocity":1,"duration":"48i"},{"time":"3232i","midiNote":63,"note":"D#4","velocity":1,"duration":"16i"},{"time":"3248i","midiNote":66,"note":"F#4","velocity":1,"duration":"16i"},{"time":"3264i","midiNote":59,"note":"B3","velocity":1,"duration":"16i"},{"time":"3264i","midiNote":72,"note":"C5","velocity":1,"duration":"144i"},{"time":"3280i","midiNote":64,"note":"E4","velocity":1,"duration":"16i"},{"time":"3296i","midiNote":67,"note":"G4","velocity":1,"duration":"16i"},{"time":"3312i","midiNote":40,"note":"E2","velocity":1,"duration":"48i"},{"time":"3312i","midiNote":52,"note":"E3","velocity":1,"duration":"48i"},{"time":"3312i","midiNote":59,"note":"B3","velocity":1,"duration":"16i"},{"time":"3328i","midiNote":64,"note":"E4","velocity":1,"duration":"16i"},{"time":"3344i","midiNote":67,"note":"G4","velocity":1,"duration":"16i"},{"time":"3360i","midiNote":43,"note":"G2","velocity":1,"duration":"48i"},{"time":"3360i","midiNote":55,"note":"G3","velocity":1,"duration":"48i"},{"time":"3360i","midiNote":59,"note":"B3","velocity":1,"duration":"16i"},{"time":"3376i","midiNote":64,"note":"E4","velocity":1,"duration":"16i"},{"time":"3392i","midiNote":67,"note":"G4","velocity":1,"duration":"16i"},{"time":"3408i","midiNote":40,"note":"E2","velocity":1,"duration":"48i"},{"time":"3408i","midiNote":52,"note":"E3","velocity":1,"duration":"48i"},{"time":"3408i","midiNote":59,"note":"B3","velocity":1,"duration":"16i"},{"time":"3408i","midiNote":70,"note":"A#4","velocity":1,"duration":"48i"},{"time":"3424i","midiNote":64,"note":"E4","velocity":1,"duration":"16i"},{"time":"3440i","midiNote":67,"note":"G4","velocity":1,"duration":"16i"},{"time":"3456i","midiNote":35,"note":"B1","velocity":1,"duration":"96i"},{"time":"3456i","midiNote":47,"note":"B2","velocity":1,"duration":"96i"},{"time":"3456i","midiNote":59,"note":"B3","velocity":1,"duration":"16i"},{"time":"3456i","midiNote":71,"note":"B4","velocity":1,"duration":"96i"},{"time":"3472i","midiNote":63,"note":"D#4","velocity":1,"duration":"16i"},{"time":"3488i","midiNote":66,"note":"F#4","velocity":1,"duration":"16i"},{"time":"3504i","midiNote":59,"note":"B3","velocity":1,"duration":"16i"},{"time":"3520i","midiNote":63,"note":"D#4","velocity":1,"duration":"16i"},{"time":"3536i","midiNote":66,"note":"F#4","velocity":1,"duration":"16i"},{"time":"3552i","midiNote":32,"note":"G#1","velocity":1,"duration":"96i"},{"time":"3552i","midiNote":44,"note":"G#2","velocity":1,"duration":"96i"},{"time":"3552i","midiNote":59,"note":"B3","velocity":1,"duration":"16i"},{"time":"3552i","midiNote":71,"note":"B4","velocity":1,"duration":"96i"},{"time":"3568i","midiNote":62,"note":"D4","velocity":1,"duration":"16i"},{"time":"3584i","midiNote":65,"note":"F4","velocity":1,"duration":"16i"},{"time":"3600i","midiNote":59,"note":"B3","velocity":1,"duration":"16i"},{"time":"3616i","midiNote":62,"note":"D4","velocity":1,"duration":"16i"},{"time":"3632i","midiNote":65,"note":"F4","velocity":1,"duration":"16i"},{"time":"3648i","midiNote":29,"note":"F1","velocity":1,"duration":"96i"},{"time":"3648i","midiNote":41,"note":"F2","velocity":1,"duration":"96i"},{"time":"3648i","midiNote":59,"note":"B3","velocity":1,"duration":"16i"},{"time":"3648i","midiNote":71,"note":"B4","velocity":1,"duration":"96i"},{"time":"3664i","midiNote":61,"note":"C#4","velocity":1,"duration":"16i"},{"time":"3680i","midiNote":68,"note":"G#4","velocity":1,"duration":"16i"},{"time":"3696i","midiNote":59,"note":"B3","velocity":1,"duration":"16i"},{"time":"3712i","midiNote":61,"note":"C#4","velocity":1,"duration":"16i"},{"time":"3728i","midiNote":68,"note":"G#4","velocity":1,"duration":"16i"},{"time":"3744i","midiNote":30,"note":"F#1","velocity":1,"duration":"96i"},{"time":"3744i","midiNote":42,"note":"F#2","velocity":1,"duration":"96i"},{"time":"3744i","midiNote":57,"note":"A3","velocity":1,"duration":"16i"},{"time":"3744i","midiNote":69,"note":"A4","velocity":1,"duration":"96i"},{"time":"3760i","midiNote":61,"note":"C#4","velocity":1,"duration":"16i"},{"time":"3776i","midiNote":66,"note":"F#4","velocity":1,"duration":"16i"},{"time":"3792i","midiNote":57,"note":"A3","velocity":1,"duration":"16i"},{"time":"3808i","midiNote":61,"note":"C#4","velocity":1,"duration":"16i"},{"time":"3824i","midiNote":66,"note":"F#4","velocity":1,"duration":"16i"},{"time":"3840i","midiNote":35,"note":"B1","velocity":1,"duration":"96i"},{"time":"3840i","midiNote":47,"note":"B2","velocity":1,"duration":"96i"},{"time":"3840i","midiNote":55,"note":"G3","velocity":1,"duration":"16i"},{"time":"3840i","midiNote":67,"note":"G4","velocity":1,"duration":"96i"},{"time":"3856i","midiNote":59,"note":"B3","velocity":1,"duration":"16i"},{"time":"3872i","midiNote":62,"note":"D4","velocity":1,"duration":"16i"},{"time":"3888i","midiNote":55,"note":"G3","velocity":1,"duration":"16i"},{"time":"3904i","midiNote":59,"note":"B3","velocity":1,"duration":"16i"},{"time":"3920i","midiNote":62,"note":"D4","velocity":1,"duration":"16i"},{"time":"3936i","midiNote":36,"note":"C2","velocity":1,"duration":"96i"},{"time":"3936i","midiNote":48,"note":"C3","velocity":1,"duration":"96i"},{"time":"3936i","midiNote":54,"note":"F#3","velocity":1,"duration":"16i"},{"time":"3936i","midiNote":66,"note":"F#4","velocity":1,"duration":"96i"},{"time":"3952i","midiNote":57,"note":"A3","velocity":1,"duration":"16i"},{"time":"3968i","midiNote":63,"note":"D#4","velocity":1,"duration":"16i"},{"time":"3984i","midiNote":54,"note":"F#3","velocity":1,"duration":"16i"},{"time":"4000i","midiNote":57,"note":"A3","velocity":1,"duration":"16i"},{"time":"4016i","midiNote":63,"note":"D#4","velocity":1,"duration":"16i"},{"time":"4032i","midiNote":37,"note":"C#2","velocity":1,"duration":"96i"},{"time":"4032i","midiNote":49,"note":"C#3","velocity":1,"duration":"16i"},{"time":"4032i","midiNote":61,"note":"C#4","velocity":1,"duration":"96i"},{"time":"4048i","midiNote":54,"note":"F#3","velocity":1,"duration":"16i"},{"time":"4064i","midiNote":57,"note":"A3","velocity":1,"duration":"16i"},{"time":"4080i","midiNote":49,"note":"C#3","velocity":1,"duration":"16i"},{"time":"4096i","midiNote":54,"note":"F#3","velocity":1,"duration":"16i"},{"time":"4112i","midiNote":57,"note":"A3","velocity":1,"duration":"16i"},{"time":"4128i","midiNote":37,"note":"C#2","velocity":1,"duration":"96i"},{"time":"4128i","midiNote":49,"note":"C#3","velocity":1,"duration":"16i"},{"time":"4128i","midiNote":61,"note":"C#4","velocity":1,"duration":"48i"},{"time":"4144i","midiNote":54,"note":"F#3","velocity":1,"duration":"16i"},{"time":"4160i","midiNote":56,"note":"G#3","velocity":1,"duration":"16i"},{"time":"4176i","midiNote":49,"note":"C#3","velocity":1,"duration":"16i"},{"time":"4176i","midiNote":61,"note":"C#4","velocity":1,"duration":"48i"},{"time":"4192i","midiNote":53,"note":"F3","velocity":1,"duration":"16i"},{"time":"4208i","midiNote":56,"note":"G#3","velocity":1,"duration":"16i"},{"time":"4224i","midiNote":30,"note":"F#1","velocity":1,"duration":"192i"},{"time":"4224i","midiNote":37,"note":"C#2","velocity":1,"duration":"192i"},{"time":"4224i","midiNote":42,"note":"F#2","velocity":1,"duration":"192i"},{"time":"4224i","midiNote":54,"note":"F#3","velocity":1,"duration":"48i"},{"time":"4240i","midiNote":57,"note":"A3","velocity":1,"duration":"16i"},{"time":"4256i","midiNote":61,"note":"C#4","velocity":1,"duration":"16i"},{"time":"4272i","midiNote":57,"note":"A3","velocity":1,"duration":"16i"},{"time":"4288i","midiNote":61,"note":"C#4","velocity":1,"duration":"16i"},{"time":"4304i","midiNote":66,"note":"F#4","velocity":1,"duration":"16i"},{"time":"4320i","midiNote":61,"note":"C#4","velocity":1,"duration":"16i"},{"time":"4336i","midiNote":66,"note":"F#4","velocity":1,"duration":"16i"},{"time":"4352i","midiNote":69,"note":"A4","velocity":1,"duration":"16i"},{"time":"4368i","midiNote":61,"note":"C#4","velocity":1,"duration":"16i"},{"time":"4368i","midiNote":73,"note":"C#5","velocity":1,"duration":"36i"},{"time":"4384i","midiNote":66,"note":"F#4","velocity":1,"duration":"16i"},{"time":"4400i","midiNote":69,"note":"A4","velocity":1,"duration":"16i"},{"time":"4404i","midiNote":73,"note":"C#5","velocity":1,"duration":"12i"},{"time":"4416i","midiNote":41,"note":"F2","velocity":1,"duration":"192i"},{"time":"4416i","midiNote":49,"note":"C#3","velocity":1,"duration":"192i"},{"time":"4416i","midiNote":53,"note":"F3","velocity":1,"duration":"192i"},{"time":"4416i","midiNote":61,"note":"C#4","velocity":1,"duration":"16i"},{"time":"4416i","midiNote":73,"note":"C#5","velocity":1,"duration":"144i"},{"time":"4432i","midiNote":68,"note":"G#4","velocity":1,"duration":"16i"},{"time":"4448i","midiNote":71,"note":"B4","velocity":1,"duration":"16i"},{"time":"4464i","midiNote":61,"note":"C#4","velocity":1,"duration":"16i"},{"time":"4480i","midiNote":68,"note":"G#4","velocity":1,"duration":"16i"},{"time":"4496i","midiNote":71,"note":"B4","velocity":1,"duration":"16i"},{"time":"4512i","midiNote":61,"note":"C#4","velocity":1,"duration":"16i"},{"time":"4528i","midiNote":68,"note":"G#4","velocity":1,"duration":"16i"},{"time":"4544i","midiNote":71,"note":"B4","velocity":1,"duration":"16i"},{"time":"4560i","midiNote":61,"note":"C#4","velocity":1,"duration":"16i"},{"time":"4560i","midiNote":73,"note":"C#5","velocity":1,"duration":"36i"},{"time":"4576i","midiNote":68,"note":"G#4","velocity":1,"duration":"16i"},{"time":"4592i","midiNote":71,"note":"B4","velocity":1,"duration":"16i"},{"time":"4596i","midiNote":73,"note":"C#5","velocity":1,"duration":"12i"},{"time":"4608i","midiNote":42,"note":"F#2","velocity":1,"duration":"96i"},{"time":"4608i","midiNote":54,"note":"F#3","velocity":1,"duration":"96i"},{"time":"4608i","midiNote":61,"note":"C#4","velocity":1,"duration":"16i"},{"time":"4608i","midiNote":73,"note":"C#5","velocity":1,"duration":"96i"},{"time":"4624i","midiNote":66,"note":"F#4","velocity":1,"duration":"16i"},{"time":"4640i","midiNote":69,"note":"A4","velocity":1,"duration":"16i"},{"time":"4656i","midiNote":61,"note":"C#4","velocity":1,"duration":"16i"},{"time":"4672i","midiNote":66,"note":"F#4","velocity":1,"duration":"16i"},{"time":"4688i","midiNote":69,"note":"A4","velocity":1,"duration":"16i"},{"time":"4704i","midiNote":39,"note":"D#2","velocity":1,"duration":"48i"},{"time":"4704i","midiNote":51,"note":"D#3","velocity":1,"duration":"48i"},{"time":"4704i","midiNote":60,"note":"C4","velocity":1,"duration":"16i"},{"time":"4704i","midiNote":72,"note":"C5","velocity":1,"duration":"48i"},{"time":"4720i","midiNote":66,"note":"F#4","velocity":1,"duration":"16i"},{"time":"4736i","midiNote":69,"note":"A4","velocity":1,"duration":"16i"},{"time":"4752i","midiNote":37,"note":"C#2","velocity":1,"duration":"48i"},{"time":"4752i","midiNote":49,"note":"C#3","velocity":1,"duration":"48i"},{"time":"4752i","midiNote":61,"note":"C#4","velocity":1,"duration":"16i"},{"time":"4752i","midiNote":73,"note":"C#5","velocity":1,"duration":"48i"},{"time":"4768i","midiNote":66,"note":"F#4","velocity":1,"duration":"16i"},{"time":"4784i","midiNote":69,"note":"A4","velocity":1,"duration":"16i"},{"time":"4800i","midiNote":36,"note":"C2","velocity":1,"duration":"144i"},{"time":"4800i","midiNote":44,"note":"G#2","velocity":1,"duration":"144i"},{"time":"4800i","midiNote":48,"note":"C3","velocity":1,"duration":"144i"},{"time":"4800i","midiNote":63,"note":"D#4","velocity":1,"duration":"16i"},{"time":"4800i","midiNote":75,"note":"D#5","velocity":1,"duration":"144i"},{"time":"4816i","midiNote":66,"note":"F#4","velocity":1,"duration":"16i"},{"time":"4832i","midiNote":68,"note":"G#4","velocity":1,"duration":"16i"},{"time":"4848i","midiNote":63,"note":"D#4","velocity":1,"duration":"16i"},{"time":"4864i","midiNote":66,"note":"F#4","velocity":1,"duration":"16i"},{"time":"4880i","midiNote":68,"note":"G#4","velocity":1,"duration":"16i"},{"time":"4896i","midiNote":63,"note":"D#4","velocity":1,"duration":"16i"},{"time":"4912i","midiNote":66,"note":"F#4","velocity":1,"duration":"16i"},{"time":"4928i","midiNote":68,"note":"G#4","velocity":1,"duration":"16i"},{"time":"4944i","midiNote":36,"note":"C2","velocity":1,"duration":"48i"},{"time":"4944i","midiNote":44,"note":"G#2","velocity":1,"duration":"48i"},{"time":"4944i","midiNote":48,"note":"C3","velocity":1,"duration":"48i"},{"time":"4944i","midiNote":63,"note":"D#4","velocity":1,"duration":"16i"},{"time":"4944i","midiNote":75,"note":"D#5","velocity":1,"duration":"48i"},{"time":"4960i","midiNote":66,"note":"F#4","velocity":1,"duration":"16i"},{"time":"4976i","midiNote":68,"note":"G#4","velocity":1,"duration":"16i"},{"time":"4992i","midiNote":37,"note":"C#2","velocity":1,"duration":"96i"},{"time":"4992i","midiNote":44,"note":"G#2","velocity":1,"duration":"96i"},{"time":"4992i","midiNote":49,"note":"C#3","velocity":1,"duration":"96i"},{"time":"4992i","midiNote":64,"note":"E4","velocity":1,"duration":"16i"},{"time":"4992i","midiNote":76,"note":"E5","velocity":1,"duration":"96i"},{"time":"5008i","midiNote":68,"note":"G#4","velocity":1,"duration":"16i"},{"time":"5024i","midiNote":73,"note":"C#5","velocity":1,"duration":"16i"},{"time":"5040i","midiNote":64,"note":"E4","velocity":1,"duration":"16i"},{"time":"5056i","midiNote":68,"note":"G#4","velocity":1,"duration":"16i"},{"time":"5072i","midiNote":73,"note":"C#5","velocity":1,"duration":"16i"},{"time":"5088i","midiNote":30,"note":"F#1","velocity":1,"duration":"48i"},{"time":"5088i","midiNote":42,"note":"F#2","velocity":1,"duration":"48i"},{"time":"5088i","midiNote":63,"note":"D#4","velocity":1,"duration":"16i"},{"time":"5088i","midiNote":75,"note":"D#5","velocity":1,"duration":"48i"},{"time":"5104i","midiNote":66,"note":"F#4","velocity":1,"duration":"16i"},{"time":"5120i","midiNote":69,"note":"A4","velocity":1,"duration":"16i"},{"time":"5136i","midiNote":31,"note":"G1","velocity":1,"duration":"48i"},{"time":"5136i","midiNote":43,"note":"G2","velocity":1,"duration":"48i"},{"time":"5136i","midiNote":61,"note":"C#4","velocity":1,"duration":"16i"},{"time":"5136i","midiNote":73,"note":"C#5","velocity":1,"duration":"48i"},{"time":"5152i","midiNote":64,"note":"E4","velocity":1,"duration":"16i"},{"time":"5168i","midiNote":70,"note":"A#4","velocity":1,"duration":"16i"},{"time":"5184i","midiNote":32,"note":"G#1","velocity":1,"duration":"192i"},{"time":"5184i","midiNote":44,"note":"G#2","velocity":1,"duration":"192i"},{"time":"5184i","midiNote":72,"note":"C5","velocity":1,"duration":"16i"},{"time":"5200i","midiNote":60,"note":"C4","velocity":1,"duration":"16i"},{"time":"5216i","midiNote":63,"note":"D#4","velocity":1,"duration":"16i"},{"time":"5232i","midiNote":68,"note":"G#4","velocity":1,"duration":"48i"},{"time":"5248i","midiNote":60,"note":"C4","velocity":1,"duration":"16i"},{"time":"5264i","midiNote":63,"note":"D#4","velocity":1,"duration":"16i"},{"time":"5280i","midiNote":69,"note":"A4","velocity":1,"duration":"48i"},{"time":"5296i","midiNote":60,"note":"C4","velocity":1,"duration":"16i"},{"time":"5312i","midiNote":63,"note":"D#4","velocity":1,"duration":"16i"},{"time":"5328i","midiNote":66,"note":"F#4","velocity":1,"duration":"48i"},{"time":"5344i","midiNote":60,"note":"C4","velocity":1,"duration":"16i"},{"time":"5360i","midiNote":63,"note":"D#4","velocity":1,"duration":"16i"},{"time":"5376i","midiNote":32,"note":"G#1","velocity":1,"duration":"192i"},{"time":"5376i","midiNote":44,"note":"G#2","velocity":1,"duration":"192i"},{"time":"5392i","midiNote":60,"note":"C4","velocity":1,"duration":"16i"},{"time":"5408i","midiNote":63,"note":"D#4","velocity":1,"duration":"16i"},{"time":"5424i","midiNote":56,"note":"G#3","velocity":1,"duration":"48i"},{"time":"5440i","midiNote":60,"note":"C4","velocity":1,"duration":"16i"},{"time":"5456i","midiNote":63,"note":"D#4","velocity":1,"duration":"16i"},{"time":"5472i","midiNote":57,"note":"A3","velocity":1,"duration":"48i"},{"time":"5488i","midiNote":60,"note":"C4","velocity":1,"duration":"16i"},{"time":"5504i","midiNote":63,"note":"D#4","velocity":1,"duration":"16i"},{"time":"5520i","midiNote":54,"note":"F#3","velocity":1,"duration":"48i"},{"time":"5536i","midiNote":60,"note":"C4","velocity":1,"duration":"16i"},{"time":"5552i","midiNote":63,"note":"D#4","velocity":1,"duration":"16i"},{"time":"5568i","midiNote":32,"note":"G#1","velocity":1,"duration":"192i"},{"time":"5568i","midiNote":44,"note":"G#2","velocity":1,"duration":"192i"},{"time":"5568i","midiNote":52,"note":"E3","velocity":1,"duration":"16i"},{"time":"5584i","midiNote":64,"note":"E4","velocity":1,"duration":"16i"},{"time":"5600i","midiNote":68,"note":"G#4","velocity":1,"duration":"16i"},{"time":"5616i","midiNote":73,"note":"C#5","velocity":1,"duration":"48i"},{"time":"5632i","midiNote":64,"note":"E4","velocity":1,"duration":"16i"},{"time":"5648i","midiNote":68,"note":"G#4","velocity":1,"duration":"16i"},{"time":"5664i","midiNote":76,"note":"E5","velocity":1,"duration":"48i"},{"time":"5680i","midiNote":64,"note":"E4","velocity":1,"duration":"16i"},{"time":"5696i","midiNote":68,"note":"G#4","velocity":1,"duration":"16i"},{"time":"5712i","midiNote":73,"note":"C#5","velocity":1,"duration":"48i"},{"time":"5728i","midiNote":64,"note":"E4","velocity":1,"duration":"16i"},{"time":"5744i","midiNote":68,"note":"G#4","velocity":1,"duration":"16i"},{"time":"5760i","midiNote":32,"note":"G#1","velocity":1,"duration":"192i"},{"time":"5760i","midiNote":44,"note":"G#2","velocity":1,"duration":"192i"},{"time":"5776i","midiNote":52,"note":"E3","velocity":1,"duration":"16i"},{"time":"5792i","midiNote":56,"note":"G#3","velocity":1,"duration":"16i"},{"time":"5808i","midiNote":61,"note":"C#4","velocity":1,"duration":"48i"},{"time":"5824i","midiNote":52,"note":"E3","velocity":1,"duration":"16i"},{"time":"5840i","midiNote":56,"note":"G#3","velocity":1,"duration":"16i"},{"time":"5856i","midiNote":64,"note":"E4","velocity":1,"duration":"48i"},{"time":"5872i","midiNote":52,"note":"E3","velocity":1,"duration":"16i"},{"time":"5888i","midiNote":56,"note":"G#3","velocity":1,"duration":"16i"},{"time":"5904i","midiNote":61,"note":"C#4","velocity":1,"duration":"48i"},{"time":"5920i","midiNote":52,"note":"E3","velocity":1,"duration":"16i"},{"time":"5936i","midiNote":56,"note":"G#3","velocity":1,"duration":"16i"},{"time":"5952i","midiNote":32,"note":"G#1","velocity":1,"duration":"192i"},{"time":"5952i","midiNote":44,"note":"G#2","velocity":1,"duration":"192i"},{"time":"5952i","midiNote":51,"note":"D#3","velocity":1,"duration":"16i"},{"time":"5968i","midiNote":57,"note":"A3","velocity":1,"duration":"16i"},{"time":"5984i","midiNote":54,"note":"F#3","velocity":1,"duration":"16i"},{"time":"6000i","midiNote":60,"note":"C4","velocity":1,"duration":"16i"},{"time":"6016i","midiNote":57,"note":"A3","velocity":1,"duration":"16i"},{"time":"6032i","midiNote":63,"note":"D#4","velocity":1,"duration":"16i"},{"time":"6048i","midiNote":60,"note":"C4","velocity":1,"duration":"16i"},{"time":"6064i","midiNote":66,"note":"F#4","velocity":1,"duration":"16i"},{"time":"6080i","midiNote":63,"note":"D#4","velocity":1,"duration":"16i"},{"time":"6096i","midiNote":69,"note":"A4","velocity":1,"duration":"16i"},{"time":"6112i","midiNote":66,"note":"F#4","velocity":1,"duration":"16i"},{"time":"6128i","midiNote":72,"note":"C5","velocity":1,"duration":"16i"},{"time":"6144i","midiNote":32,"note":"G#1","velocity":1,"duration":"192i"},{"time":"6144i","midiNote":44,"note":"G#2","velocity":1,"duration":"192i"},{"time":"6144i","midiNote":52,"note":"E3","velocity":1,"duration":"16i"},{"time":"6160i","midiNote":61,"note":"C#4","velocity":1,"duration":"16i"},{"time":"6176i","midiNote":56,"note":"G#3","velocity":1,"duration":"16i"},{"time":"6192i","midiNote":64,"note":"E4","velocity":1,"duration":"16i"},{"time":"6208i","midiNote":61,"note":"C#4","velocity":1,"duration":"16i"},{"time":"6224i","midiNote":68,"note":"G#4","velocity":1,"duration":"16i"},{"time":"6240i","midiNote":64,"note":"E4","velocity":1,"duration":"16i"},{"time":"6256i","midiNote":73,"note":"C#5","velocity":1,"duration":"16i"},{"time":"6272i","midiNote":68,"note":"G#4","velocity":1,"duration":"16i"},{"time":"6288i","midiNote":76,"note":"E5","velocity":1,"duration":"16i"},{"time":"6304i","midiNote":73,"note":"C#5","velocity":1,"duration":"16i"},{"time":"6320i","midiNote":68,"note":"G#4","velocity":1,"duration":"16i"},{"time":"6336i","midiNote":32,"note":"G#1","velocity":1,"duration":"192i"},{"time":"6336i","midiNote":44,"note":"G#2","velocity":1,"duration":"192i"},{"time":"6336i","midiNote":61,"note":"C#4","velocity":1,"duration":"16i"},{"time":"6352i","midiNote":67,"note":"G4","velocity":1,"duration":"16i"},{"time":"6368i","midiNote":64,"note":"E4","velocity":1,"duration":"16i"},{"time":"6384i","midiNote":70,"note":"A#4","velocity":1,"duration":"16i"},{"time":"6400i","midiNote":67,"note":"G4","velocity":1,"duration":"16i"},{"time":"6416i","midiNote":73,"note":"C#5","velocity":1,"duration":"16i"},{"time":"6432i","midiNote":70,"note":"A#4","velocity":1,"duration":"16i"},{"time":"6448i","midiNote":76,"note":"E5","velocity":1,"duration":"16i"},{"time":"6464i","midiNote":73,"note":"C#5","velocity":1,"duration":"16i"},{"time":"6480i","midiNote":79,"note":"G5","velocity":1,"duration":"16i"},{"time":"6496i","midiNote":76,"note":"E5","velocity":1,"duration":"16i"},{"time":"6512i","midiNote":82,"note":"A#5","velocity":1,"duration":"16i"},{"time":"6528i","midiNote":32,"note":"G#1","velocity":1,"duration":"576i"},{"time":"6528i","midiNote":44,"note":"G#2","velocity":1,"duration":"576i"},{"time":"6528i","midiNote":66,"note":"F#4","velocity":1,"duration":"16i"},{"time":"6544i","midiNote":72,"note":"C5","velocity":1,"duration":"16i"},{"time":"6560i","midiNote":69,"note":"A4","velocity":1,"duration":"16i"},{"time":"6576i","midiNote":75,"note":"D#5","velocity":1,"duration":"16i"},{"time":"6592i","midiNote":72,"note":"C5","velocity":1,"duration":"16i"},{"time":"6608i","midiNote":78,"note":"F#5","velocity":1,"duration":"16i"},{"time":"6624i","midiNote":75,"note":"D#5","velocity":1,"duration":"16i"},{"time":"6640i","midiNote":81,"note":"A5","velocity":1,"duration":"16i"},{"time":"6656i","midiNote":78,"note":"F#5","velocity":1,"duration":"16i"},{"time":"6672i","midiNote":84,"note":"C6","velocity":1,"duration":"16i"},{"time":"6688i","midiNote":81,"note":"A5","velocity":1,"duration":"16i"},{"time":"6704i","midiNote":87,"note":"D#6","velocity":1,"duration":"16i"},{"time":"6720i","midiNote":84,"note":"C6","velocity":1,"duration":"16i"},{"time":"6736i","midiNote":78,"note":"F#5","velocity":1,"duration":"16i"},{"time":"6752i","midiNote":81,"note":"A5","velocity":1,"duration":"16i"},{"time":"6768i","midiNote":75,"note":"D#5","velocity":1,"duration":"16i"},{"time":"6784i","midiNote":78,"note":"F#5","velocity":1,"duration":"16i"},{"time":"6800i","midiNote":72,"note":"C5","velocity":1,"duration":"16i"},{"time":"6816i","midiNote":75,"note":"D#5","velocity":1,"duration":"16i"},{"time":"6832i","midiNote":69,"note":"A4","velocity":1,"duration":"16i"},{"time":"6848i","midiNote":72,"note":"C5","velocity":1,"duration":"16i"},{"time":"6864i","midiNote":66,"note":"F#4","velocity":1,"duration":"16i"},{"time":"6880i","midiNote":69,"note":"A4","velocity":1,"duration":"16i"},{"time":"6896i","midiNote":63,"note":"D#4","velocity":1,"duration":"16i"},{"time":"6912i","midiNote":66,"note":"F#4","velocity":1,"duration":"16i"},{"time":"6928i","midiNote":60,"note":"C4","velocity":1,"duration":"16i"},{"time":"6944i","midiNote":63,"note":"D#4","velocity":1,"duration":"16i"},{"time":"6960i","midiNote":57,"note":"A3","velocity":1,"duration":"16i"},{"time":"6976i","midiNote":60,"note":"C4","velocity":1,"duration":"16i"},{"time":"6992i","midiNote":54,"note":"F#3","velocity":1,"duration":"16i"},{"time":"7008i","midiNote":57,"note":"A3","velocity":1,"duration":"16i"},{"time":"7024i","midiNote":51,"note":"D#3","velocity":1,"duration":"32i"},{"time":"7040i","midiNote":54,"note":"F#3","velocity":1,"duration":"16i"},{"time":"7056i","midiNote":49,"note":"C#3","velocity":1,"duration":"48i"},{"time":"7072i","midiNote":54,"note":"F#3","velocity":1,"duration":"16i"},{"time":"7088i","midiNote":57,"note":"A3","velocity":1,"duration":"16i"},{"time":"7104i","midiNote":32,"note":"G#1","velocity":1,"duration":"192i"},{"time":"7104i","midiNote":44,"note":"G#2","velocity":1,"duration":"192i"},{"time":"7104i","midiNote":48,"note":"C3","velocity":1,"duration":"96i"},{"time":"7120i","midiNote":54,"note":"F#3","velocity":1,"duration":"16i"},{"time":"7136i","midiNote":56,"note":"G#3","velocity":1,"duration":"16i"},{"time":"7152i","midiNote":57,"note":"A3","velocity":1,"duration":"16i"},{"time":"7168i","midiNote":56,"note":"G#3","velocity":1,"duration":"16i"},{"time":"7184i","midiNote":54,"note":"F#3","velocity":1,"duration":"16i"},{"time":"7200i","midiNote":51,"note":"D#3","velocity":1,"duration":"48i"},{"time":"7216i","midiNote":54,"note":"F#3","velocity":1,"duration":"16i"},{"time":"7232i","midiNote":57,"note":"A3","velocity":1,"duration":"16i"},{"time":"7248i","midiNote":49,"note":"C#3","velocity":1,"duration":"48i"},{"time":"7264i","midiNote":54,"note":"F#3","velocity":1,"duration":"16i"},{"time":"7280i","midiNote":57,"note":"A3","velocity":1,"duration":"16i"},{"time":"7296i","midiNote":32,"note":"G#1","velocity":1,"duration":"192i"},{"time":"7296i","midiNote":44,"note":"G#2","velocity":1,"duration":"192i"},{"time":"7296i","midiNote":48,"note":"C3","velocity":1,"duration":"96i"},{"time":"7312i","midiNote":54,"note":"F#3","velocity":1,"duration":"16i"},{"time":"7328i","midiNote":56,"note":"G#3","velocity":1,"duration":"16i"},{"time":"7344i","midiNote":57,"note":"A3","velocity":1,"duration":"16i"},{"time":"7360i","midiNote":56,"note":"G#3","velocity":1,"duration":"16i"},{"time":"7376i","midiNote":54,"note":"F#3","velocity":1,"duration":"16i"},{"time":"7392i","midiNote":50,"note":"D3","velocity":1,"duration":"48i"},{"time":"7408i","midiNote":54,"note":"F#3","velocity":1,"duration":"16i"},{"time":"7424i","midiNote":57,"note":"A3","velocity":1,"duration":"16i"},{"time":"7440i","midiNote":49,"note":"C#3","velocity":1,"duration":"48i"},{"time":"7456i","midiNote":54,"note":"F#3","velocity":1,"duration":"16i"},{"time":"7472i","midiNote":57,"note":"A3","velocity":1,"duration":"16i"},{"time":"7488i","midiNote":32,"note":"G#1","velocity":1,"duration":"96i"},{"time":"7488i","midiNote":44,"note":"G#2","velocity":1,"duration":"96i"},{"time":"7488i","midiNote":48,"note":"C3","velocity":1,"duration":"96i"},{"time":"7504i","midiNote":54,"note":"F#3","velocity":1,"duration":"16i"},{"time":"7520i","midiNote":56,"note":"G#3","velocity":1,"duration":"16i"},{"time":"7536i","midiNote":57,"note":"A3","velocity":1,"duration":"16i"},{"time":"7552i","midiNote":56,"note":"G#3","velocity":1,"duration":"16i"},{"time":"7568i","midiNote":54,"note":"F#3","velocity":1,"duration":"16i"},{"time":"7584i","midiNote":33,"note":"A1","velocity":1,"duration":"96i"},{"time":"7584i","midiNote":45,"note":"A2","velocity":1,"duration":"96i"},{"time":"7584i","midiNote":49,"note":"C#3","velocity":1,"duration":"16i"},{"time":"7600i","midiNote":52,"note":"E3","velocity":1,"duration":"16i"},{"time":"7616i","midiNote":61,"note":"C#4","velocity":1,"duration":"16i"},{"time":"7632i","midiNote":49,"note":"C#3","velocity":1,"duration":"16i"},{"time":"7648i","midiNote":52,"note":"E3","velocity":1,"duration":"16i"},{"time":"7664i","midiNote":61,"note":"C#4","velocity":1,"duration":"16i"},{"time":"7680i","midiNote":30,"note":"F#1","velocity":1,"duration":"96i"},{"time":"7680i","midiNote":42,"note":"F#2","velocity":1,"duration":"96i"},{"time":"7680i","midiNote":51,"note":"D#3","velocity":1,"duration":"16i"},{"time":"7696i","midiNote":57,"note":"A3","velocity":1,"duration":"16i"},{"time":"7712i","midiNote":61,"note":"C#4","velocity":1,"duration":"16i"},{"time":"7728i","midiNote":51,"note":"D#3","velocity":1,"duration":"16i"},{"time":"7744i","midiNote":57,"note":"A3","velocity":1,"duration":"16i"},{"time":"7760i","midiNote":61,"note":"C#4","velocity":1,"duration":"16i"},{"time":"7776i","midiNote":32,"note":"G#1","velocity":1,"duration":"96i"},{"time":"7776i","midiNote":44,"note":"G#2","velocity":1,"duration":"96i"},{"time":"7776i","midiNote":51,"note":"D#3","velocity":1,"duration":"16i"},{"time":"7792i","midiNote":56,"note":"G#3","velocity":1,"duration":"16i"},{"time":"7808i","midiNote":60,"note":"C4","velocity":1,"duration":"16i"},{"time":"7824i","midiNote":51,"note":"D#3","velocity":1,"duration":"16i"},{"time":"7840i","midiNote":54,"note":"F#3","velocity":1,"duration":"16i"},{"time":"7856i","midiNote":60,"note":"C4","velocity":1,"duration":"16i"},{"time":"7872i","midiNote":37,"note":"C#2","velocity":1,"duration":"192i"},{"time":"7872i","midiNote":44,"note":"G#2","velocity":1,"duration":"192i"},{"time":"7872i","midiNote":49,"note":"C#3","velocity":1,"duration":"192i"},{"time":"7872i","midiNote":52,"note":"E3","velocity":1,"duration":"16i"},{"time":"7888i","midiNote":56,"note":"G#3","velocity":1,"duration":"16i"},{"time":"7904i","midiNote":61,"note":"C#4","velocity":1,"duration":"16i"},{"time":"7920i","midiNote":56,"note":"G#3","velocity":1,"duration":"16i"},{"time":"7936i","midiNote":61,"note":"C#4","velocity":1,"duration":"16i"},{"time":"7952i","midiNote":64,"note":"E4","velocity":1,"duration":"16i"},{"time":"7968i","midiNote":56,"note":"G#3","velocity":1,"duration":"16i"},{"time":"7984i","midiNote":61,"note":"C#4","velocity":1,"duration":"16i"},{"time":"8000i","midiNote":64,"note":"E4","velocity":1,"duration":"16i"},{"time":"8016i","midiNote":56,"note":"G#3","velocity":1,"duration":"16i"},{"time":"8016i","midiNote":68,"note":"G#4","velocity":1,"duration":"36i"},{"time":"8032i","midiNote":61,"note":"C#4","velocity":1,"duration":"16i"},{"time":"8048i","midiNote":64,"note":"E4","velocity":1,"duration":"16i"},{"time":"8052i","midiNote":68,"note":"G#4","velocity":1,"duration":"12i"},{"time":"8064i","midiNote":36,"note":"C2","velocity":1,"duration":"192i"},{"time":"8064i","midiNote":44,"note":"G#2","velocity":1,"duration":"192i"},{"time":"8064i","midiNote":48,"note":"C3","velocity":1,"duration":"192i"},{"time":"8064i","midiNote":56,"note":"G#3","velocity":1,"duration":"16i"},{"time":"8064i","midiNote":68,"note":"G#4","velocity":1,"duration":"144i"},{"time":"8080i","midiNote":63,"note":"D#4","velocity":1,"duration":"16i"},{"time":"8096i","midiNote":66,"note":"F#4","velocity":1,"duration":"16i"},{"time":"8112i","midiNote":56,"note":"G#3","velocity":1,"duration":"16i"},{"time":"8128i","midiNote":63,"note":"D#4","velocity":1,"duration":"16i"},{"time":"8144i","midiNote":66,"note":"F#4","velocity":1,"duration":"16i"},{"time":"8160i","midiNote":56,"note":"G#3","velocity":1,"duration":"16i"},{"time":"8176i","midiNote":63,"note":"D#4","velocity":1,"duration":"16i"},{"time":"8192i","midiNote":66,"note":"F#4","velocity":1,"duration":"16i"},{"time":"8208i","midiNote":56,"note":"G#3","velocity":1,"duration":"16i"},{"time":"8208i","midiNote":68,"note":"G#4","velocity":1,"duration":"36i"},{"time":"8224i","midiNote":63,"note":"D#4","velocity":1,"duration":"16i"},{"time":"8240i","midiNote":66,"note":"F#4","velocity":1,"duration":"16i"},{"time":"8244i","midiNote":68,"note":"G#4","velocity":1,"duration":"12i"},{"time":"8256i","midiNote":37,"note":"C#2","velocity":1,"duration":"96i"},{"time":"8256i","midiNote":49,"note":"C#3","velocity":1,"duration":"96i"},{"time":"8256i","midiNote":56,"note":"G#3","velocity":1,"duration":"16i"},{"time":"8256i","midiNote":68,"note":"G#4","velocity":1,"duration":"96i"},{"time":"8272i","midiNote":61,"note":"C#4","velocity":1,"duration":"16i"},{"time":"8288i","midiNote":64,"note":"E4","velocity":1,"duration":"16i"},{"time":"8304i","midiNote":56,"note":"G#3","velocity":1,"duration":"16i"},{"time":"8320i","midiNote":61,"note":"C#4","velocity":1,"duration":"16i"},{"time":"8336i","midiNote":64,"note":"E4","velocity":1,"duration":"16i"},{"time":"8352i","midiNote":30,"note":"F#1","velocity":1,"duration":"96i"},{"time":"8352i","midiNote":42,"note":"F#2","velocity":1,"duration":"96i"},{"time":"8352i","midiNote":57,"note":"A3","velocity":1,"duration":"16i"},{"time":"8352i","midiNote":69,"note":"A4","velocity":1,"duration":"96i"},{"time":"8368i","midiNote":61,"note":"C#4","velocity":1,"duration":"16i"},{"time":"8384i","midiNote":66,"note":"F#4","velocity":1,"duration":"16i"},{"time":"8400i","midiNote":57,"note":"A3","velocity":1,"duration":"16i"},{"time":"8416i","midiNote":61,"note":"C#4","velocity":1,"duration":"16i"},{"time":"8432i","midiNote":66,"note":"F#4","velocity":1,"duration":"16i"},{"time":"8448i","midiNote":35,"note":"B1","velocity":1,"duration":"96i"},{"time":"8448i","midiNote":47,"note":"B2","velocity":1,"duration":"96i"},{"time":"8448i","midiNote":56,"note":"G#3","velocity":1,"duration":"16i"},{"time":"8448i","midiNote":68,"note":"G#4","velocity":1,"duration":"96i"},{"time":"8464i","midiNote":59,"note":"B3","velocity":1,"duration":"16i"},{"time":"8480i","midiNote":64,"note":"E4","velocity":1,"duration":"16i"},{"time":"8496i","midiNote":56,"note":"G#3","velocity":1,"duration":"16i"},{"time":"8512i","midiNote":59,"note":"B3","velocity":1,"duration":"16i"},{"time":"8528i","midiNote":64,"note":"E4","velocity":1,"duration":"16i"},{"time":"8544i","midiNote":35,"note":"B1","velocity":1,"duration":"96i"},{"time":"8544i","midiNote":47,"note":"B2","velocity":1,"duration":"96i"},{"time":"8544i","midiNote":57,"note":"A3","velocity":1,"duration":"16i"},{"time":"8544i","midiNote":66,"note":"F#4","velocity":1,"duration":"48i"},{"time":"8560i","midiNote":59,"note":"B3","velocity":1,"duration":"16i"},{"time":"8576i","midiNote":63,"note":"D#4","velocity":1,"duration":"16i"},{"time":"8592i","midiNote":57,"note":"A3","velocity":1,"duration":"16i"},{"time":"8592i","midiNote":71,"note":"B4","velocity":1,"duration":"48i"},{"time":"8608i","midiNote":59,"note":"B3","velocity":1,"duration":"16i"},{"time":"8624i","midiNote":63,"note":"D#4","velocity":1,"duration":"16i"},{"time":"8640i","midiNote":40,"note":"E2","velocity":1,"duration":"192i"},{"time":"8640i","midiNote":52,"note":"E3","velocity":1,"duration":"192i"},{"time":"8640i","midiNote":56,"note":"G#3","velocity":1,"duration":"16i"},{"time":"8640i","midiNote":64,"note":"E4","velocity":1,"duration":"48i"},{"time":"8656i","midiNote":59,"note":"B3","velocity":1,"duration":"16i"},{"time":"8688i","midiNote":59,"note":"B3","velocity":1,"duration":"16i"},{"time":"8704i","midiNote":64,"note":"E4","velocity":1,"duration":"16i"},{"time":"8720i","midiNote":68,"note":"G#4","velocity":1,"duration":"16i"},{"time":"8736i","midiNote":59,"note":"B3","velocity":1,"duration":"16i"},{"time":"8752i","midiNote":64,"note":"E4","velocity":1,"duration":"16i"},{"time":"8768i","midiNote":68,"note":"G#4","velocity":1,"duration":"16i"},{"time":"8784i","midiNote":59,"note":"B3","velocity":1,"duration":"16i"},{"time":"8784i","midiNote":71,"note":"B4","velocity":1,"duration":"36i"},{"time":"8800i","midiNote":64,"note":"E4","velocity":1,"duration":"16i"},{"time":"8816i","midiNote":68,"note":"G#4","velocity":1,"duration":"16i"},{"time":"8820i","midiNote":71,"note":"B4","velocity":1,"duration":"12i"},{"time":"8832i","midiNote":39,"note":"D#2","velocity":1,"duration":"192i"},{"time":"8832i","midiNote":51,"note":"D#3","velocity":1,"duration":"192i"},{"time":"8832i","midiNote":59,"note":"B3","velocity":1,"duration":"16i"},{"time":"8832i","midiNote":71,"note":"B4","velocity":1,"duration":"144i"},{"time":"8848i","midiNote":66,"note":"F#4","velocity":1,"duration":"16i"},{"time":"8864i","midiNote":69,"note":"A4","velocity":1,"duration":"16i"},{"time":"8880i","midiNote":59,"note":"B3","velocity":1,"duration":"16i"},{"time":"8896i","midiNote":66,"note":"F#4","velocity":1,"duration":"16i"},{"time":"8912i","midiNote":69,"note":"A4","velocity":1,"duration":"16i"},{"time":"8928i","midiNote":59,"note":"B3","velocity":1,"duration":"16i"},{"time":"8944i","midiNote":66,"note":"F#4","velocity":1,"duration":"16i"},{"time":"8960i","midiNote":69,"note":"A4","velocity":1,"duration":"16i"},{"time":"8976i","midiNote":59,"note":"B3","velocity":1,"duration":"16i"},{"time":"8976i","midiNote":71,"note":"B4","velocity":1,"duration":"36i"},{"time":"8992i","midiNote":66,"note":"F#4","velocity":1,"duration":"16i"},{"time":"9008i","midiNote":69,"note":"A4","velocity":1,"duration":"16i"},{"time":"9012i","midiNote":71,"note":"B4","velocity":1,"duration":"12i"},{"time":"9024i","midiNote":40,"note":"E2","velocity":1,"duration":"96i"},{"time":"9024i","midiNote":52,"note":"E3","velocity":1,"duration":"96i"},{"time":"9024i","midiNote":59,"note":"B3","velocity":1,"duration":"16i"},{"time":"9024i","midiNote":71,"note":"B4","velocity":1,"duration":"96i"},{"time":"9040i","midiNote":64,"note":"E4","velocity":1,"duration":"16i"},{"time":"9056i","midiNote":68,"note":"G#4","velocity":1,"duration":"16i"},{"time":"9072i","midiNote":59,"note":"B3","velocity":1,"duration":"16i"},{"time":"9088i","midiNote":64,"note":"E4","velocity":1,"duration":"16i"},{"time":"9104i","midiNote":68,"note":"G#4","velocity":1,"duration":"16i"},{"time":"9120i","midiNote":39,"note":"D#2","velocity":1,"duration":"48i"},{"time":"9120i","midiNote":51,"note":"D#3","velocity":1,"duration":"48i"},{"time":"9120i","midiNote":60,"note":"C4","velocity":1,"duration":"16i"},{"time":"9120i","midiNote":72,"note":"C5","velocity":1,"duration":"48i"},{"time":"9136i","midiNote":66,"note":"F#4","velocity":1,"duration":"16i"},{"time":"9152i","midiNote":68,"note":"G#4","velocity":1,"duration":"16i"},{"time":"9168i","midiNote":37,"note":"C#2","velocity":1,"duration":"48i"},{"time":"9168i","midiNote":49,"note":"C#3","velocity":1,"duration":"48i"},{"time":"9168i","midiNote":61,"note":"C#4","velocity":1,"duration":"16i"},{"time":"9168i","midiNote":73,"note":"C#5","velocity":1,"duration":"48i"},{"time":"9184i","midiNote":64,"note":"E4","velocity":1,"duration":"16i"},{"time":"9200i","midiNote":68,"note":"G#4","velocity":1,"duration":"16i"},{"time":"9216i","midiNote":36,"note":"C2","velocity":1,"duration":"96i"},{"time":"9216i","midiNote":44,"note":"G#2","velocity":1,"duration":"96i"},{"time":"9216i","midiNote":48,"note":"C3","velocity":1,"duration":"96i"},{"time":"9216i","midiNote":63,"note":"D#4","velocity":1,"duration":"16i"},{"time":"9216i","midiNote":75,"note":"D#5","velocity":1,"duration":"96i"},{"time":"9232i","midiNote":66,"note":"F#4","velocity":1,"duration":"16i"},{"time":"9248i","midiNote":68,"note":"G#4","velocity":1,"duration":"16i"},{"time":"9264i","midiNote":63,"note":"D#4","velocity":1,"duration":"16i"},{"time":"9280i","midiNote":66,"note":"F#4","velocity":1,"duration":"16i"},{"time":"9296i","midiNote":68,"note":"G#4","velocity":1,"duration":"16i"},{"time":"9312i","midiNote":37,"note":"C#2","velocity":1,"duration":"96i"},{"time":"9312i","midiNote":44,"note":"G#2","velocity":1,"duration":"96i"},{"time":"9312i","midiNote":49,"note":"C#3","velocity":1,"duration":"96i"},{"time":"9312i","midiNote":64,"note":"E4","velocity":1,"duration":"16i"},{"time":"9312i","midiNote":76,"note":"E5","velocity":1,"duration":"96i"},{"time":"9328i","midiNote":68,"note":"G#4","velocity":1,"duration":"16i"},{"time":"9344i","midiNote":73,"note":"C#5","velocity":1,"duration":"16i"},{"time":"9360i","midiNote":64,"note":"E4","velocity":1,"duration":"16i"},{"time":"9376i","midiNote":68,"note":"G#4","velocity":1,"duration":"16i"},{"time":"9392i","midiNote":73,"note":"C#5","velocity":1,"duration":"16i"},{"time":"9408i","midiNote":30,"note":"F#1","velocity":1,"duration":"96i"},{"time":"9408i","midiNote":42,"note":"F#2","velocity":1,"duration":"96i"},{"time":"9408i","midiNote":62,"note":"D4","velocity":1,"duration":"16i"},{"time":"9408i","midiNote":74,"note":"D5","velocity":1,"duration":"96i"},{"time":"9424i","midiNote":66,"note":"F#4","velocity":1,"duration":"16i"},{"time":"9440i","midiNote":69,"note":"A4","velocity":1,"duration":"16i"},{"time":"9456i","midiNote":62,"note":"D4","velocity":1,"duration":"16i"},{"time":"9472i","midiNote":66,"note":"F#4","velocity":1,"duration":"16i"},{"time":"9488i","midiNote":69,"note":"A4","velocity":1,"duration":"16i"},{"time":"9504i","midiNote":32,"note":"G#1","velocity":1,"duration":"96i"},{"time":"9504i","midiNote":44,"note":"G#2","velocity":1,"duration":"96i"},{"time":"9504i","midiNote":60,"note":"C4","velocity":1,"duration":"16i"},{"time":"9504i","midiNote":72,"note":"C5","velocity":1,"duration":"96i"},{"time":"9520i","midiNote":66,"note":"F#4","velocity":1,"duration":"16i"},{"time":"9536i","midiNote":68,"note":"G#4","velocity":1,"duration":"16i"},{"time":"9552i","midiNote":60,"note":"C4","velocity":1,"duration":"16i"},{"time":"9568i","midiNote":66,"note":"F#4","velocity":1,"duration":"16i"},{"time":"9584i","midiNote":68,"note":"G#4","velocity":1,"duration":"16i"},{"time":"9600i","midiNote":37,"note":"C#2","velocity":1,"duration":"240i"},{"time":"9600i","midiNote":49,"note":"C#3","velocity":1,"duration":"240i"},{"time":"9600i","midiNote":61,"note":"C#4","velocity":1,"duration":"16i"},{"time":"9600i","midiNote":73,"note":"C#5","velocity":1,"duration":"144i"},{"time":"9616i","midiNote":64,"note":"E4","velocity":1,"duration":"16i"},{"time":"9632i","midiNote":68,"note":"G#4","velocity":1,"duration":"16i"},{"time":"9648i","midiNote":61,"note":"C#4","velocity":1,"duration":"16i"},{"time":"9664i","midiNote":64,"note":"E4","velocity":1,"duration":"16i"},{"time":"9680i","midiNote":68,"note":"G#4","velocity":1,"duration":"16i"},{"time":"9696i","midiNote":61,"note":"C#4","velocity":1,"duration":"16i"},{"time":"9712i","midiNote":65,"note":"F4","velocity":1,"duration":"16i"},{"time":"9728i","midiNote":68,"note":"G#4","velocity":1,"duration":"16i"},{"time":"9744i","midiNote":61,"note":"C#4","velocity":1,"duration":"16i"},{"time":"9744i","midiNote":73,"note":"C#5","velocity":1,"duration":"48i"},{"time":"9760i","midiNote":65,"note":"F4","velocity":1,"duration":"16i"},{"time":"9776i","midiNote":68,"note":"G#4","velocity":1,"duration":"16i"},{"time":"9792i","midiNote":61,"note":"C#4","velocity":1,"duration":"16i"},{"time":"9792i","midiNote":74,"note":"D5","velocity":1,"duration":"144i"},{"time":"9808i","midiNote":66,"note":"F#4","velocity":1,"duration":"16i"},{"time":"9824i","midiNote":69,"note":"A4","velocity":1,"duration":"16i"},{"time":"9840i","midiNote":42,"note":"F#2","velocity":1,"duration":"48i"},{"time":"9840i","midiNote":54,"note":"F#3","velocity":1,"duration":"48i"},{"time":"9840i","midiNote":61,"note":"C#4","velocity":1,"duration":"16i"},{"time":"9856i","midiNote":66,"note":"F#4","velocity":1,"duration":"16i"},{"time":"9872i","midiNote":69,"note":"A4","velocity":1,"duration":"16i"},{"time":"9888i","midiNote":45,"note":"A2","velocity":1,"duration":"48i"},{"time":"9888i","midiNote":57,"note":"A3","velocity":1,"duration":"48i"},{"time":"9888i","midiNote":61,"note":"C#4","velocity":1,"duration":"16i"},{"time":"9904i","midiNote":66,"note":"F#4","velocity":1,"duration":"16i"},{"time":"9920i","midiNote":69,"note":"A4","velocity":1,"duration":"16i"},{"time":"9936i","midiNote":42,"note":"F#2","velocity":1,"duration":"48i"},{"time":"9936i","midiNote":54,"note":"F#3","velocity":1,"duration":"48i"},{"time":"9936i","midiNote":61,"note":"C#4","velocity":1,"duration":"16i"},{"time":"9936i","midiNote":72,"note":"C5","velocity":1,"duration":"48i"},{"time":"9952i","midiNote":66,"note":"F#4","velocity":1,"duration":"16i"},{"time":"9968i","midiNote":69,"note":"A4","velocity":1,"duration":"16i"},{"time":"9984i","midiNote":37,"note":"C#2","velocity":1,"duration":"240i"},{"time":"9984i","midiNote":49,"note":"C#3","velocity":1,"duration":"240i"},{"time":"9984i","midiNote":61,"note":"C#4","velocity":1,"duration":"16i"},{"time":"9984i","midiNote":73,"note":"C#5","velocity":1,"duration":"144i"},{"time":"10000i","midiNote":65,"note":"F4","velocity":1,"duration":"16i"},{"time":"10016i","midiNote":68,"note":"G#4","velocity":1,"duration":"16i"},{"time":"10032i","midiNote":61,"note":"C#4","velocity":1,"duration":"16i"},{"time":"10048i","midiNote":65,"note":"F4","velocity":1,"duration":"16i"},{"time":"10064i","midiNote":68,"note":"G#4","velocity":1,"duration":"16i"},{"time":"10080i","midiNote":61,"note":"C#4","velocity":1,"duration":"16i"},{"time":"10096i","midiNote":65,"note":"F4","velocity":1,"duration":"16i"},{"time":"10112i","midiNote":68,"note":"G#4","velocity":1,"duration":"16i"},{"time":"10128i","midiNote":61,"note":"C#4","velocity":1,"duration":"16i"},{"time":"10128i","midiNote":73,"note":"C#5","velocity":1,"duration":"48i"},{"time":"10144i","midiNote":65,"note":"F4","velocity":1,"duration":"16i"},{"time":"10160i","midiNote":68,"note":"G#4","velocity":1,"duration":"16i"},{"time":"10176i","midiNote":61,"note":"C#4","velocity":1,"duration":"16i"},{"time":"10176i","midiNote":74,"note":"D5","velocity":1,"duration":"144i"},{"time":"10192i","midiNote":66,"note":"F#4","velocity":1,"duration":"16i"},{"time":"10208i","midiNote":69,"note":"A4","velocity":1,"duration":"16i"},{"time":"10224i","midiNote":42,"note":"F#2","velocity":1,"duration":"48i"},{"time":"10224i","midiNote":54,"note":"F#3","velocity":1,"duration":"48i"},{"time":"10224i","midiNote":61,"note":"C#4","velocity":1,"duration":"16i"},{"time":"10240i","midiNote":66,"note":"F#4","velocity":1,"duration":"16i"},{"time":"10256i","midiNote":69,"note":"A4","velocity":1,"duration":"16i"},{"time":"10272i","midiNote":45,"note":"A2","velocity":1,"duration":"48i"},{"time":"10272i","midiNote":57,"note":"A3","velocity":1,"duration":"48i"},{"time":"10272i","midiNote":61,"note":"C#4","velocity":1,"duration":"16i"},{"time":"10288i","midiNote":66,"note":"F#4","velocity":1,"duration":"16i"},{"time":"10304i","midiNote":69,"note":"A4","velocity":1,"duration":"16i"},{"time":"10320i","midiNote":42,"note":"F#2","velocity":1,"duration":"48i"},{"time":"10320i","midiNote":54,"note":"F#3","velocity":1,"duration":"48i"},{"time":"10320i","midiNote":61,"note":"C#4","velocity":1,"duration":"16i"},{"time":"10320i","midiNote":72,"note":"C5","velocity":1,"duration":"48i"},{"time":"10336i","midiNote":66,"note":"F#4","velocity":1,"duration":"16i"},{"time":"10352i","midiNote":69,"note":"A4","velocity":1,"duration":"16i"},{"time":"10368i","midiNote":37,"note":"C#2","velocity":1,"duration":"96i"},{"time":"10368i","midiNote":49,"note":"C#3","velocity":1,"duration":"96i"},{"time":"10368i","midiNote":61,"note":"C#4","velocity":1,"duration":"16i"},{"time":"10368i","midiNote":73,"note":"C#5","velocity":1,"duration":"96i"},{"time":"10384i","midiNote":65,"note":"F4","velocity":1,"duration":"16i"},{"time":"10400i","midiNote":68,"note":"G#4","velocity":1,"duration":"16i"},{"time":"10416i","midiNote":61,"note":"C#4","velocity":1,"duration":"16i"},{"time":"10432i","midiNote":65,"note":"F4","velocity":1,"duration":"16i"},{"time":"10448i","midiNote":68,"note":"G#4","velocity":1,"duration":"16i"},{"time":"10464i","midiNote":30,"note":"F#1","velocity":1,"duration":"96i"},{"time":"10464i","midiNote":42,"note":"F#2","velocity":1,"duration":"96i"},{"time":"10464i","midiNote":61,"note":"C#4","velocity":1,"duration":"16i"},{"time":"10464i","midiNote":73,"note":"C#5","velocity":1,"duration":"96i"},{"time":"10480i","midiNote":66,"note":"F#4","velocity":1,"duration":"16i"},{"time":"10496i","midiNote":69,"note":"A4","velocity":1,"duration":"16i"},{"time":"10512i","midiNote":61,"note":"C#4","velocity":1,"duration":"16i"},{"time":"10528i","midiNote":66,"note":"F#4","velocity":1,"duration":"16i"},{"time":"10544i","midiNote":69,"note":"A4","velocity":1,"duration":"16i"},{"time":"10560i","midiNote":39,"note":"D#2","velocity":1,"duration":"144i"},{"time":"10560i","midiNote":51,"note":"D#3","velocity":1,"duration":"144i"},{"time":"10560i","midiNote":59,"note":"B3","velocity":1,"duration":"16i"},{"time":"10560i","midiNote":71,"note":"B4","velocity":1,"duration":"144i"},{"time":"10576i","midiNote":66,"note":"F#4","velocity":1,"duration":"16i"},{"time":"10592i","midiNote":69,"note":"A4","velocity":1,"duration":"16i"},{"time":"10608i","midiNote":59,"note":"B3","velocity":1,"duration":"16i"},{"time":"10624i","midiNote":66,"note":"F#4","velocity":1,"duration":"16i"},{"time":"10640i","midiNote":69,"note":"A4","velocity":1,"duration":"16i"},{"time":"10656i","midiNote":59,"note":"B3","velocity":1,"duration":"16i"},{"time":"10672i","midiNote":66,"note":"F#4","velocity":1,"duration":"16i"},{"time":"10688i","midiNote":69,"note":"A4","velocity":1,"duration":"16i"},{"time":"10704i","midiNote":40,"note":"E2","velocity":1,"duration":"48i"},{"time":"10704i","midiNote":52,"note":"E3","velocity":1,"duration":"48i"},{"time":"10704i","midiNote":59,"note":"B3","velocity":1,"duration":"16i"},{"time":"10704i","midiNote":71,"note":"B4","velocity":1,"duration":"48i"},{"time":"10720i","midiNote":64,"note":"E4","velocity":1,"duration":"16i"},{"time":"10736i","midiNote":68,"note":"G#4","velocity":1,"duration":"16i"},{"time":"10752i","midiNote":37,"note":"C#2","velocity":1,"duration":"48i"},{"time":"10752i","midiNote":49,"note":"C#3","velocity":1,"duration":"48i"},{"time":"10752i","midiNote":57,"note":"A3","velocity":1,"duration":"16i"},{"time":"10752i","midiNote":69,"note":"A4","velocity":1,"duration":"48i"},{"time":"10768i","midiNote":64,"note":"E4","velocity":1,"duration":"16i"},{"time":"10784i","midiNote":68,"note":"G#4","velocity":1,"duration":"16i"},{"time":"10800i","midiNote":39,"note":"D#2","velocity":1,"duration":"48i"},{"time":"10800i","midiNote":51,"note":"D#3","velocity":1,"duration":"48i"},{"time":"10800i","midiNote":57,"note":"A3","velocity":1,"duration":"16i"},{"time":"10800i","midiNote":69,"note":"A4","velocity":1,"duration":"48i"},{"time":"10816i","midiNote":63,"note":"D#4","velocity":1,"duration":"16i"},{"time":"10832i","midiNote":66,"note":"F#4","velocity":1,"duration":"16i"},{"time":"10848i","midiNote":36,"note":"C2","velocity":1,"duration":"48i"},{"time":"10848i","midiNote":48,"note":"C3","velocity":1,"duration":"48i"},{"time":"10848i","midiNote":56,"note":"G#3","velocity":1,"duration":"16i"},{"time":"10848i","midiNote":68,"note":"G#4","velocity":1,"duration":"48i"},{"time":"10864i","midiNote":63,"note":"D#4","velocity":1,"duration":"16i"},{"time":"10880i","midiNote":66,"note":"F#4","velocity":1,"duration":"16i"},{"time":"10896i","midiNote":37,"note":"C#2","velocity":1,"duration":"48i"},{"time":"10896i","midiNote":49,"note":"C#3","velocity":1,"duration":"48i"},{"time":"10896i","midiNote":56,"note":"G#3","velocity":1,"duration":"16i"},{"time":"10896i","midiNote":68,"note":"G#4","velocity":1,"duration":"48i"},{"time":"10912i","midiNote":61,"note":"C#4","velocity":1,"duration":"16i"},{"time":"10928i","midiNote":64,"note":"E4","velocity":1,"duration":"16i"},{"time":"10944i","midiNote":33,"note":"A1","velocity":1,"duration":"96i"},{"time":"10944i","midiNote":45,"note":"A2","velocity":1,"duration":"96i"},{"time":"10944i","midiNote":54,"note":"F#3","velocity":1,"duration":"16i"},{"time":"10944i","midiNote":66,"note":"F#4","velocity":1,"duration":"96i"},{"time":"10960i","midiNote":61,"note":"C#4","velocity":1,"duration":"16i"},{"time":"10976i","midiNote":63,"note":"D#4","velocity":1,"duration":"16i"},{"time":"10992i","midiNote":54,"note":"F#3","velocity":1,"duration":"16i"},{"time":"11008i","midiNote":61,"note":"C#4","velocity":1,"duration":"16i"},{"time":"11024i","midiNote":63,"note":"D#4","velocity":1,"duration":"16i"},{"time":"11040i","midiNote":32,"note":"G#1","velocity":1,"duration":"48i"},{"time":"11040i","midiNote":44,"note":"G#2","velocity":1,"duration":"48i"},{"time":"11040i","midiNote":56,"note":"G#3","velocity":1,"duration":"16i"},{"time":"11040i","midiNote":68,"note":"G#4","velocity":1,"duration":"48i"},{"time":"11056i","midiNote":61,"note":"C#4","velocity":1,"duration":"16i"},{"time":"11072i","midiNote":63,"note":"D#4","velocity":1,"duration":"16i"},{"time":"11088i","midiNote":30,"note":"F#1","velocity":1,"duration":"48i"},{"time":"11088i","midiNote":42,"note":"F#2","velocity":1,"duration":"48i"},{"time":"11088i","midiNote":57,"note":"A3","velocity":1,"duration":"16i"},{"time":"11088i","midiNote":69,"note":"A4","velocity":1,"duration":"48i"},{"time":"11104i","midiNote":61,"note":"C#4","velocity":1,"duration":"16i"},{"time":"11120i","midiNote":63,"note":"D#4","velocity":1,"duration":"16i"},{"time":"11136i","midiNote":32,"note":"G#1","velocity":1,"duration":"96i"},{"time":"11136i","midiNote":44,"note":"G#2","velocity":1,"duration":"96i"},{"time":"11136i","midiNote":56,"note":"G#3","velocity":1,"duration":"16i"},{"time":"11136i","midiNote":68,"note":"G#4","velocity":1,"duration":"96i"},{"time":"11152i","midiNote":61,"note":"C#4","velocity":1,"duration":"16i"},{"time":"11168i","midiNote":64,"note":"E4","velocity":1,"duration":"16i"},{"time":"11184i","midiNote":56,"note":"G#3","velocity":1,"duration":"16i"},{"time":"11200i","midiNote":61,"note":"C#4","velocity":1,"duration":"16i"},{"time":"11216i","midiNote":64,"note":"E4","velocity":1,"duration":"16i"},{"time":"11232i","midiNote":32,"note":"G#1","velocity":1,"duration":"96i"},{"time":"11232i","midiNote":44,"note":"G#2","velocity":1,"duration":"96i"},{"time":"11232i","midiNote":54,"note":"F#3","velocity":1,"duration":"16i"},{"time":"11232i","midiNote":68,"note":"G#4","velocity":1,"duration":"96i"},{"time":"11248i","midiNote":60,"note":"C4","velocity":1,"duration":"16i"},{"time":"11264i","midiNote":63,"note":"D#4","velocity":1,"duration":"16i"},{"time":"11280i","midiNote":54,"note":"F#3","velocity":1,"duration":"16i"},{"time":"11296i","midiNote":60,"note":"C4","velocity":1,"duration":"16i"},{"time":"11312i","midiNote":63,"note":"D#4","velocity":1,"duration":"16i"},{"time":"11328i","midiNote":37,"note":"C#2","velocity":1,"duration":"192i"},{"time":"11328i","midiNote":44,"note":"G#2","velocity":1,"duration":"144i"},{"time":"11328i","midiNote":52,"note":"E3","velocity":1,"duration":"16i"},{"time":"11328i","midiNote":61,"note":"C#4","velocity":1,"duration":"32i"},{"time":"11344i","midiNote":56,"note":"G#3","velocity":1,"duration":"16i"},{"time":"11360i","midiNote":61,"note":"C#4","velocity":1,"duration":"16i"},{"time":"11376i","midiNote":56,"note":"G#3","velocity":1,"duration":"16i"},{"time":"11392i","midiNote":61,"note":"C#4","velocity":1,"duration":"16i"},{"time":"11408i","midiNote":64,"note":"E4","velocity":1,"duration":"16i"},{"time":"11424i","midiNote":56,"note":"G#3","velocity":1,"duration":"16i"},{"time":"11440i","midiNote":61,"note":"C#4","velocity":1,"duration":"16i"},{"time":"11456i","midiNote":64,"note":"E4","velocity":1,"duration":"16i"},{"time":"11472i","midiNote":44,"note":"G#2","velocity":1,"duration":"36i"},{"time":"11472i","midiNote":56,"note":"G#3","velocity":1,"duration":"16i"},{"time":"11488i","midiNote":61,"note":"C#4","velocity":1,"duration":"16i"},{"time":"11504i","midiNote":64,"note":"E4","velocity":1,"duration":"16i"},{"time":"11508i","midiNote":44,"note":"G#2","velocity":1,"duration":"12i"},{"time":"11520i","midiNote":36,"note":"C2","velocity":1,"duration":"192i"},{"time":"11520i","midiNote":44,"note":"G#2","velocity":1,"duration":"144i"},{"time":"11520i","midiNote":56,"note":"G#3","velocity":1,"duration":"16i"},{"time":"11536i","midiNote":63,"note":"D#4","velocity":1,"duration":"16i"},{"time":"11552i","midiNote":66,"note":"F#4","velocity":1,"duration":"16i"},{"time":"11568i","midiNote":56,"note":"G#3","velocity":1,"duration":"16i"},{"time":"11584i","midiNote":63,"note":"D#4","velocity":1,"duration":"16i"},{"time":"11600i","midiNote":66,"note":"F#4","velocity":1,"duration":"16i"},{"time":"11616i","midiNote":56,"note":"G#3","velocity":1,"duration":"16i"},{"time":"11632i","midiNote":63,"note":"D#4","velocity":1,"duration":"16i"},{"time":"11648i","midiNote":66,"note":"F#4","velocity":1,"duration":"16i"},{"time":"11664i","midiNote":44,"note":"G#2","velocity":1,"duration":"36i"},{"time":"11664i","midiNote":56,"note":"G#3","velocity":1,"duration":"16i"},{"time":"11680i","midiNote":63,"note":"D#4","velocity":1,"duration":"16i"},{"time":"11696i","midiNote":66,"note":"F#4","velocity":1,"duration":"16i"},{"time":"11700i","midiNote":44,"note":"G#2","velocity":1,"duration":"12i"},{"time":"11712i","midiNote":37,"note":"C#2","velocity":1,"duration":"192i"},{"time":"11712i","midiNote":44,"note":"G#2","velocity":1,"duration":"144i"},{"time":"11712i","midiNote":56,"note":"G#3","velocity":1,"duration":"16i"},{"time":"11728i","midiNote":64,"note":"E4","velocity":1,"duration":"16i"},{"time":"11744i","midiNote":61,"note":"C#4","velocity":1,"duration":"16i"},{"time":"11760i","midiNote":68,"note":"G#4","velocity":1,"duration":"16i"},{"time":"11776i","midiNote":64,"note":"E4","velocity":1,"duration":"16i"},{"time":"11792i","midiNote":73,"note":"C#5","velocity":1,"duration":"16i"},{"time":"11808i","midiNote":68,"note":"G#4","velocity":1,"duration":"16i"},{"time":"11824i","midiNote":76,"note":"E5","velocity":1,"duration":"16i"},{"time":"11840i","midiNote":73,"note":"C#5","velocity":1,"duration":"16i"},{"time":"11856i","midiNote":44,"note":"G#2","velocity":1,"duration":"36i"},{"time":"11856i","midiNote":80,"note":"G#5","velocity":1,"duration":"16i"},{"time":"11872i","midiNote":76,"note":"E5","velocity":1,"duration":"16i"},{"time":"11888i","midiNote":73,"note":"C#5","velocity":1,"duration":"16i"},{"time":"11892i","midiNote":44,"note":"G#2","velocity":1,"duration":"12i"},{"time":"11904i","midiNote":32,"note":"G#1","velocity":1,"duration":"192i"},{"time":"11904i","midiNote":44,"note":"G#2","velocity":1,"duration":"144i"},{"time":"11904i","midiNote":72,"note":"C5","velocity":1,"duration":"16i"},{"time":"11920i","midiNote":75,"note":"D#5","velocity":1,"duration":"16i"},{"time":"11936i","midiNote":69,"note":"A4","velocity":1,"duration":"16i"},{"time":"11952i","midiNote":72,"note":"C5","velocity":1,"duration":"16i"},{"time":"11968i","midiNote":66,"note":"F#4","velocity":1,"duration":"16i"},{"time":"11984i","midiNote":69,"note":"A4","velocity":1,"duration":"16i"},{"time":"12000i","midiNote":63,"note":"D#4","velocity":1,"duration":"16i"},{"time":"12016i","midiNote":66,"note":"F#4","velocity":1,"duration":"16i"},{"time":"12032i","midiNote":57,"note":"A3","velocity":1,"duration":"32i"},{"time":"12048i","midiNote":44,"note":"G#2","velocity":1,"duration":"36i"},{"time":"12048i","midiNote":60,"note":"C4","velocity":1,"duration":"48i"},{"time":"12064i","midiNote":56,"note":"G#3","velocity":1,"duration":"16i"},{"time":"12080i","midiNote":54,"note":"F#3","velocity":1,"duration":"16i"},{"time":"12084i","midiNote":44,"note":"G#2","velocity":1,"duration":"12i"},{"time":"12096i","midiNote":37,"note":"C#2","velocity":1,"duration":"192i"},{"time":"12096i","midiNote":44,"note":"G#2","velocity":1,"duration":"144i"},{"time":"12096i","midiNote":52,"note":"E3","velocity":1,"duration":"16i"},{"time":"12096i","midiNote":61,"note":"C#4","velocity":1,"duration":"16i"},{"time":"12112i","midiNote":64,"note":"E4","velocity":1,"duration":"16i"},{"time":"12128i","midiNote":61,"note":"C#4","velocity":1,"duration":"16i"},{"time":"12144i","midiNote":68,"note":"G#4","velocity":1,"duration":"16i"},{"time":"12160i","midiNote":64,"note":"E4","velocity":1,"duration":"16i"},{"time":"12176i","midiNote":73,"note":"C#5","velocity":1,"duration":"16i"},{"time":"12192i","midiNote":68,"note":"G#4","velocity":1,"duration":"16i"},{"time":"12208i","midiNote":76,"note":"E5","velocity":1,"duration":"16i"},{"time":"12224i","midiNote":73,"note":"C#5","velocity":1,"duration":"16i"},{"time":"12240i","midiNote":44,"note":"G#2","velocity":1,"duration":"36i"},{"time":"12240i","midiNote":80,"note":"G#5","velocity":1,"duration":"16i"},{"time":"12256i","midiNote":76,"note":"E5","velocity":1,"duration":"16i"},{"time":"12272i","midiNote":73,"note":"C#5","velocity":1,"duration":"16i"},{"time":"12276i","midiNote":44,"note":"G#2","velocity":1,"duration":"12i"},{"time":"12288i","midiNote":32,"note":"G#1","velocity":1,"duration":"192i"},{"time":"12288i","midiNote":44,"note":"G#2","velocity":1,"duration":"144i"},{"time":"12288i","midiNote":72,"note":"C5","velocity":1,"duration":"16i"},{"time":"12304i","midiNote":75,"note":"D#5","velocity":1,"duration":"16i"},{"time":"12320i","midiNote":69,"note":"A4","velocity":1,"duration":"16i"},{"time":"12336i","midiNote":72,"note":"C5","velocity":1,"duration":"16i"},{"time":"12352i","midiNote":66,"note":"F#4","velocity":1,"duration":"16i"},{"time":"12368i","midiNote":69,"note":"A4","velocity":1,"duration":"16i"},{"time":"12384i","midiNote":63,"note":"D#4","velocity":1,"duration":"16i"},{"time":"12400i","midiNote":66,"note":"F#4","velocity":1,"duration":"16i"},{"time":"12416i","midiNote":57,"note":"A3","velocity":1,"duration":"32i"},{"time":"12432i","midiNote":44,"note":"G#2","velocity":1,"duration":"36i"},{"time":"12432i","midiNote":60,"note":"C4","velocity":1,"duration":"48i"},{"time":"12448i","midiNote":56,"note":"G#3","velocity":1,"duration":"16i"},{"time":"12464i","midiNote":54,"note":"F#3","velocity":1,"duration":"16i"},{"time":"12468i","midiNote":44,"note":"G#2","velocity":1,"duration":"12i"},{"time":"12480i","midiNote":37,"note":"C#2","velocity":1,"duration":"384i"},{"time":"12480i","midiNote":44,"note":"G#2","velocity":1,"duration":"96i"},{"time":"12480i","midiNote":52,"note":"E3","velocity":1,"duration":"16i"},{"time":"12480i","midiNote":61,"note":"C#4","velocity":1,"duration":"16i"},{"time":"12496i","midiNote":56,"note":"G#3","velocity":1,"duration":"16i"},{"time":"12512i","midiNote":61,"note":"C#4","velocity":1,"duration":"16i"},{"time":"12528i","midiNote":64,"note":"E4","velocity":1,"duration":"16i"},{"time":"12544i","midiNote":61,"note":"C#4","velocity":1,"duration":"16i"},{"time":"12560i","midiNote":56,"note":"G#3","velocity":1,"duration":"16i"},{"time":"12576i","midiNote":49,"note":"C#3","velocity":1,"duration":"96i"},{"time":"12592i","midiNote":52,"note":"E3","velocity":1,"duration":"16i"},{"time":"12608i","midiNote":56,"note":"G#3","velocity":1,"duration":"16i"},{"time":"12624i","midiNote":61,"note":"C#4","velocity":1,"duration":"16i"},{"time":"12640i","midiNote":56,"note":"G#3","velocity":1,"duration":"16i"},{"time":"12656i","midiNote":52,"note":"E3","velocity":1,"duration":"16i"},{"time":"12672i","midiNote":44,"note":"G#2","velocity":1,"duration":"96i"},{"time":"12688i","midiNote":49,"note":"C#3","velocity":1,"duration":"16i"},{"time":"12704i","midiNote":52,"note":"E3","velocity":1,"duration":"16i"},{"time":"12720i","midiNote":56,"note":"G#3","velocity":1,"duration":"16i"},{"time":"12736i","midiNote":52,"note":"E3","velocity":1,"duration":"16i"},{"time":"12752i","midiNote":49,"note":"C#3","velocity":1,"duration":"16i"},{"time":"12768i","midiNote":44,"note":"G#2","velocity":1,"duration":"16i"},{"time":"12784i","midiNote":49,"note":"C#3","velocity":1,"duration":"16i"},{"time":"12800i","midiNote":44,"note":"G#2","velocity":1,"duration":"16i"},{"time":"12816i","midiNote":40,"note":"E2","velocity":1,"duration":"16i"},{"time":"12832i","midiNote":44,"note":"G#2","velocity":1,"duration":"16i"},{"time":"12848i","midiNote":40,"note":"E2","velocity":1,"duration":"16i"},{"time":"12864i","midiNote":37,"note":"C#2","velocity":1,"duration":"96i"},{"time":"12960i","midiNote":37,"note":"C#2","velocity":1,"duration":"96i"},{"time":"12960i","midiNote":44,"note":"G#2","velocity":1,"duration":"96i"},{"time":"12960i","midiNote":49,"note":"C#3","velocity":1,"duration":"96i"},{"time":"12960i","midiNote":52,"note":"E3","velocity":1,"duration":"96i"},{"time":"12960i","midiNote":56,"note":"G#3","velocity":1,"duration":"96i"},{"time":"12960i","midiNote":61,"note":"C#4","velocity":1,"duration":"96i"},{"time":"13056i","midiNote":37,"note":"C#2","velocity":1,"duration":"192i"},{"time":"13056i","midiNote":44,"note":"G#2","velocity":1,"duration":"192i"},{"time":"13056i","midiNote":49,"note":"C#3","velocity":1,"duration":"192i"},{"time":"13056i","midiNote":52,"note":"E3","velocity":1,"duration":"192i"},{"time":"13056i","midiNote":56,"note":"G#3","velocity":1,"duration":"192i"},{"time":"13056i","midiNote":61,"note":"C#4","velocity":1,"duration":"192i"}]}